<svg width="32" height="32" viewBox="0 0 32 32" fill="none" xmlns="http://www.w3.org/2000/svg">
<path fill-rule="evenodd" clip-rule="evenodd" d="M22.6467 7.85232C21.2404 7 15.6151 7 15.5725 7C15.5299 7 9.90453 7 8.49819 7.85232C7.34756 8.53418 5.98384 11.4747 5.3446 13.9038C4.66274 16.4608 5.17414 20.1258 5.3446 21.1486C5.38722 21.4469 5.51506 21.6599 5.81338 21.873V24.8135C5.81338 25.2823 6.19692 25.6659 6.6657 25.6659H10.1176C10.5864 25.6659 10.9699 25.2823 10.9699 24.8135V22.8532C12.5467 22.981 14.2514 23.0663 15.6151 23.0663C16.9788 23.0663 18.6834 22.981 20.2602 22.8532V24.8135C20.2602 25.2823 20.6438 25.6659 21.1126 25.6659H24.5219C24.9906 25.6659 25.3742 25.2823 25.3742 24.8135V21.873C25.6725 21.6599 25.8003 21.4469 25.843 21.1486C26.0134 20.0831 26.5248 16.4608 25.843 13.9038C25.1611 11.4747 23.7974 8.53418 22.6467 7.85232ZM9.35052 9.30127C9.81929 9.00296 12.5893 8.70465 15.5725 8.70465C18.5556 8.70465 21.3256 9.04557 21.7944 9.30127C22.1354 9.51435 23.0303 10.9633 23.7548 12.9236C22.0927 12.5827 18.9391 11.9861 15.5725 11.9861C12.2484 11.9861 9.0522 12.5827 7.39017 12.9236C8.11465 10.9633 9.00959 9.51435 9.35052 9.30127ZM9.22267 23.9612H7.47541V22.427C7.94418 22.5123 8.54081 22.5975 9.22267 22.6827V23.9612ZM23.6695 23.9612H21.9223V22.6827C22.6467 22.5975 23.2008 22.5123 23.6695 22.427V23.9612ZM24.2235 20.5519C23.1155 20.9355 18.8113 21.3616 15.5725 21.3616C12.3763 21.3616 8.02942 20.9355 6.9214 20.5519C6.6657 18.7621 6.53785 16.4608 6.83616 14.7988C7.64587 14.5857 11.5239 13.6907 15.5299 13.6907C19.1899 13.6907 22.7432 14.4734 23.9471 14.7385C24.0608 14.7636 24.1536 14.784 24.2235 14.7988C24.6071 16.4608 24.4792 18.7621 24.2235 20.5519ZM21.966 18.5062C22.6721 18.5062 23.2445 17.9338 23.2445 17.2277C23.2445 16.5216 22.6721 15.9492 21.966 15.9492C21.2599 15.9492 20.6875 16.5216 20.6875 17.2277C20.6875 17.9338 21.2599 18.5062 21.966 18.5062ZM10.4593 17.2277C10.4593 17.9338 9.88691 18.5062 9.18083 18.5062C8.47474 18.5062 7.90234 17.9338 7.90234 17.2277C7.90234 16.5216 8.47474 15.9492 9.18083 15.9492C9.88691 15.9492 10.4593 16.5216 10.4593 17.2277Z" fill="white"/>
</svg>
