<svg width="24" height="24" viewBox="0 0 24 24" fill="none" xmlns="http://www.w3.org/2000/svg"> <path d="M3.19196 5.99954H20.808C22.3973 6.03549 22.3973 3.96451 20.808 4.00046H3.19196C1.60268 3.96444 1.60268 6.03549 3.19196 5.99954Z" fill="#0D4CD3"/> <path d="M14.2252 11.0005H2.77478C1.74174 10.9645 1.74174 13.0355 2.77478 12.9995H14.2252C15.2583 13.0355 15.2583 10.9645 14.2252 11.0005Z" fill="#0D4CD3"/> <path d="M17.9868 18H3.01317C1.66228 18 1.66228 20 3.01317 20H17.9868C19.3377 20 19.3377 18 17.9868 18Z" fill="#0D4CD3"/> <path d="M3.19196 5.99954H20.808C22.3973 6.03549 22.3973 3.96451 20.808 4.00046H3.19196C1.60268 3.96444 1.60268 6.03549 3.19196 5.99954Z" fill="#0D4CD3"/> <path d="M14.2252 11.0005H2.77478C1.74174 10.9645 1.74174 13.0355 2.77478 12.9995H14.2252C15.2583 13.0355 15.2583 10.9645 14.2252 11.0005Z" fill="#0D4CD3"/> <path d="M17.9868 18H3.01317C1.66228 18 1.66228 20 3.01317 20H17.9868C19.3377 20 19.3377 18 17.9868 18Z" fill="#0D4CD3"/></svg>