<svg width="32" height="32" viewBox="0 0 32 32" fill="none" xmlns="http://www.w3.org/2000/svg">
<path fill-rule="evenodd" clip-rule="evenodd" d="M27.4998 8.26087C26.0044 7.43631 24.2134 7 22.3227 7C20.1702 7 17.832 7.60375 16.5011 8.91752C15.1688 7.60375 12.831 7 10.6781 7C8.78552 7 6.99596 7.43631 5.50001 8.26087C5.19196 8.43122 4.99992 8.75736 4.99992 9.11214V23.3758C4.99992 23.718 5.17945 24.0359 5.47209 24.2111C5.76329 24.3853 6.12717 24.3921 6.42511 24.2271C7.35118 23.7161 8.42742 23.4574 9.62783 23.4574C12.1134 23.4574 14.6196 24.6032 15.6323 25.4982C15.7387 25.6899 15.9014 25.8491 16.1117 25.9325C16.2272 25.9777 16.3457 26 16.465 26C16.4775 26 16.4886 25.9971 16.5011 25.9961C16.5122 25.9971 16.5247 26 16.5358 26C16.6542 26 16.7735 25.9777 16.8881 25.9325C17.0999 25.8491 17.2626 25.6899 17.3685 25.4982C18.3802 24.6032 20.8865 23.4574 23.372 23.4574C24.5715 23.4574 25.6496 23.7161 26.5757 24.2271C26.8727 24.3921 27.2356 24.3853 27.5273 24.2111C27.8204 24.0359 27.9999 23.718 27.9999 23.3758V9.11214C27.9999 8.75736 27.8083 8.43122 27.4998 8.26087ZM6.92521 21.914V9.71297C8.02888 9.2126 9.33952 8.9413 10.6781 8.9413C12.9287 8.9413 14.9489 9.72898 15.5024 10.7763V23.0813C14.0117 22.245 11.8982 21.5161 9.62783 21.5161C8.67 21.5161 7.7656 21.65 6.92521 21.914ZM26.0746 21.914C25.2333 21.65 24.3308 21.5161 23.372 21.5161C21.1016 21.5161 18.9886 22.2441 17.4984 23.0803V10.7763C18.051 9.72898 20.0716 8.9413 22.3227 8.9413C23.6618 8.9413 24.9719 9.2126 26.0746 9.71297V21.914Z" fill="white"/>
</svg>
