<svg width="32" height="32" viewBox="0 0 32 32" fill="none" xmlns="http://www.w3.org/2000/svg">
<g clip-path="url(#clip0)">
<path fill-rule="evenodd" clip-rule="evenodd" d="M23.9328 26.5244C23.8879 26.5244 23.7879 26.8547 23.8908 27.089C23.9456 27.2137 24.0742 27.2664 24.1819 27.2314C24.2879 27.1971 24.3188 27.099 24.3218 27.0226C24.3317 26.7659 24.1 26.5244 23.9328 26.5244H23.9328ZM23.1613 22.7785L23.195 23.1412L22.8729 23.1063V23.5193L23.195 23.4845L23.1613 23.8632H23.5989L23.5651 23.4845L23.8872 23.5193V23.1063L23.5651 23.1413L23.5989 22.7785H23.1613H23.1613ZM23.3806 24.2079C23.2935 24.2079 23.2228 24.2781 23.2228 24.3647C23.2228 24.4513 23.2935 24.5216 23.3806 24.5216C23.4678 24.5216 23.5384 24.4514 23.5384 24.3647C23.5384 24.2781 23.4677 24.2079 23.3806 24.2079ZM23.3806 24.843C23.2935 24.843 23.2228 24.9132 23.2228 24.9999C23.2228 25.0865 23.2935 25.1567 23.3806 25.1567C23.4678 25.1567 23.5384 25.0865 23.5384 24.9999C23.5384 24.9133 23.4677 24.843 23.3806 24.843ZM23.3806 25.4873C23.2935 25.4873 23.2228 25.5575 23.2228 25.6441C23.2228 25.7309 23.2935 25.8011 23.3806 25.8011C23.4678 25.8011 23.5384 25.7308 23.5384 25.6441C23.5384 25.5575 23.4677 25.4873 23.3806 25.4873V25.4873ZM23.8902 25.6441C23.8902 25.7309 23.9609 25.8011 24.048 25.8011C24.1351 25.8011 24.2058 25.7308 24.2058 25.6441C24.2058 25.5575 24.1351 25.4873 24.048 25.4873C23.9608 25.4873 23.8902 25.5575 23.8902 25.6441L23.8902 25.6441ZM24.5515 25.6441C24.5515 25.7309 24.6223 25.8011 24.7094 25.8011C24.7965 25.8011 24.8672 25.7308 24.8672 25.6441C24.8672 25.5575 24.7965 25.4873 24.7094 25.4873C24.6223 25.4873 24.5515 25.5575 24.5515 25.6441V25.6441ZM23.3806 26.3497C23.2456 26.3497 22.9123 27.0163 23.1607 27.3534C23.2082 27.4179 23.2915 27.4541 23.3806 27.4541C23.4698 27.4541 23.553 27.4179 23.6006 27.3534C23.849 27.0163 23.5157 26.3497 23.3806 26.3497ZM22.8285 26.5243C22.6612 26.5243 22.4295 26.7659 22.4394 27.0226C22.4424 27.099 22.4733 27.197 22.5794 27.2314C22.687 27.2664 22.8157 27.2137 22.8705 27.0889C22.9733 26.8547 22.8734 26.5243 22.8285 26.5243V26.5243ZM22.5718 25.6441C22.5718 25.7309 22.6423 25.801 22.7295 25.801C22.8168 25.801 22.8873 25.7308 22.8873 25.6441C22.8873 25.5575 22.8167 25.4872 22.7295 25.4872C22.6423 25.4872 22.5717 25.5575 22.5717 25.6441L22.5718 25.6441ZM21.9266 25.6441C21.9266 25.7309 21.9972 25.801 22.0844 25.801C22.1715 25.801 22.2422 25.7308 22.2422 25.6441C22.2422 25.5575 22.1715 25.4872 22.0844 25.4872C21.9972 25.4872 21.9266 25.5575 21.9266 25.6441V25.6441ZM21.771 25.6441C21.771 25.5104 21.7948 25.3899 21.7948 25.3899H23.1061V25.2793L23.1061 24.3472L23.1061 24.3471V24.0821C22.4731 24.1901 21.9669 24.6652 21.816 25.2791C21.7793 25.3301 21.6603 25.3563 21.5765 25.3471C21.0926 25.2894 20.1134 25.1176 20.1134 24.9146C20.1134 24.6294 20.3118 24.5152 20.5024 24.5152C20.7744 24.5152 21.0748 24.6586 21.325 24.3061C20.4346 24.3457 21.1171 23.0937 20.3869 22.8561C20.4231 23.1758 20.3872 23.7383 20.272 24.0356C20.272 24.0356 20.0104 23.7636 19.7165 23.6609C19.7385 23.893 19.6939 24.3741 19.5872 24.5931C19.5872 24.5931 19.2761 24.3127 18.9534 24.2078C19.2511 24.628 19.2409 25.2275 19.1608 25.5922C19.1376 25.6977 19.2184 25.829 19.4454 25.8193C19.8005 25.8041 21.0133 25.8561 21.5394 26.0655C21.7029 26.1306 21.843 26.2053 21.9115 26.3188C21.9672 26.4717 22.1051 26.7084 22.2748 26.8298C22.351 26.5656 22.6757 26.2826 22.8873 26.2928C22.9505 26.2958 23.0204 26.3986 23.0349 26.4993C23.0536 26.4056 23.2096 26.1469 23.3806 26.1469C23.5384 26.1469 23.69 26.3634 23.7427 26.5421C23.7585 26.4273 23.8283 26.3045 23.8915 26.3045C24.104 26.3045 24.3712 26.488 24.4719 26.791C24.5534 26.6921 24.9279 26.2237 24.9701 25.9163H21.7947C21.7947 25.9163 21.771 25.7833 21.771 25.6442L21.771 25.6441ZM23.6552 24.0824V25.3899H24.9676C24.8535 24.7232 24.3252 24.197 23.6552 24.0824H23.6552ZM8.16819 25.1589C8.19573 25.1679 8.22362 25.1616 8.25108 25.1474C8.16261 25.2672 8.16627 25.3461 8.20435 25.3831C8.2642 25.4407 8.30852 25.3347 8.45977 25.1784C8.61116 25.0224 8.71587 24.9748 8.65626 24.9169C8.61782 24.8797 8.53817 24.8786 8.41925 24.973C8.4324 24.9454 8.43745 24.9179 8.42788 24.891C8.37784 24.7501 8.14491 24.5625 8.01651 24.5621C7.99798 24.5623 7.97966 24.566 7.96262 24.5731C8.01911 24.4848 8.00453 24.4182 7.96674 24.3816C7.92514 24.3414 7.90131 24.3696 7.85461 24.4277C7.86099 24.3871 7.85028 24.3395 7.81088 24.2814C7.61815 23.9976 6.59876 23.0628 6.36729 22.9689C6.22913 22.9126 6.1838 22.9905 6.1838 22.9905C6.1838 22.9905 6.10733 23.0384 6.16777 23.1748C6.26894 23.403 7.24847 24.379 7.53826 24.5627C7.59768 24.6003 7.64542 24.6094 7.68579 24.6019C7.62947 24.6499 7.60248 24.6747 7.64386 24.7147C7.68168 24.7513 7.749 24.7637 7.83555 24.7043C7.82904 24.7216 7.82598 24.74 7.82653 24.7584C7.83092 24.8866 8.02569 25.1134 8.16824 25.1589L8.16819 25.1589ZM5.71793 22.3936C5.68772 22.3936 5.64484 22.4006 5.61329 22.4331C5.58133 22.466 5.5701 22.517 5.58173 22.5761C5.5945 22.6404 5.63213 22.7055 5.68786 22.7596C5.75459 22.8243 5.83854 22.8629 5.91212 22.8629C5.94252 22.8629 5.98511 22.8562 6.01671 22.8237C6.08557 22.7525 6.05158 22.603 5.94226 22.4971C5.87532 22.4325 5.7916 22.3936 5.71795 22.3936L5.71793 22.3936ZM8.88827 25.8633C8.88742 25.7646 8.69552 25.5989 8.46792 25.5989C8.12987 25.5989 7.98354 25.8078 7.98354 25.9143C7.98354 26.1147 8.18218 26.1405 8.24307 26.1438C8.48099 26.1581 8.86463 25.921 8.88827 25.8633ZM8.59707 26.3637C8.50725 26.4759 8.47362 26.5855 8.49685 26.6893C8.52515 26.8151 8.65269 26.8716 8.76664 26.8716C8.88671 26.8716 8.99426 26.8163 9.05429 26.7236C9.18344 26.5252 9.18914 26.0854 9.1456 26.0373C9.03735 26.0373 8.74945 26.1736 8.59709 26.3638L8.59707 26.3637ZM5.63038 21.7856C5.53484 21.693 5.33946 21.8309 5.2227 21.7667C5.27446 21.484 5.47967 21.7807 5.678 21.5763C5.75707 21.4947 5.71464 21.3673 5.66926 21.3288C5.58381 21.4133 5.45157 21.384 5.4414 21.3371C5.66649 20.8184 5.22669 20.2401 4.8044 20.3126C4.88725 20.4207 4.91202 20.7965 4.87593 20.898C5.0367 21.0106 4.92178 21.2758 4.74434 21.1988C4.62534 21.1515 4.41544 20.8614 4.65682 20.657C4.64987 20.5834 4.51708 20.5655 4.37597 20.743C4.4795 20.4171 3.84571 20.5193 3.71548 20.5975C3.64142 20.7299 3.55934 21.3665 3.88164 21.2528C3.70876 21.3995 3.73084 21.5315 3.80466 21.5362C4.00136 21.2887 4.29771 21.4895 4.34884 21.6069C4.43147 21.782 4.16982 21.9048 4.0523 21.7478C3.95172 21.7871 3.57531 21.7742 3.46458 21.6948C3.40556 22.1189 3.99734 22.5402 4.50895 22.2992C4.5561 22.3079 4.58955 22.4388 4.50789 22.527C4.54783 22.5713 4.67641 22.6096 4.7556 22.5279C4.95367 22.3235 4.65056 22.1276 4.93164 22.0669C4.99948 22.1816 4.86782 22.3812 4.96324 22.4738C5.1161 22.6218 5.3081 22.3347 5.49667 22.3231C5.5022 22.1344 5.78321 21.9337 5.6304 21.7855L5.63038 21.7856ZM4.04615 21.1307C4.04615 21.1307 3.94728 21.0622 4.06584 20.9368C4.18733 20.8143 4.25911 20.9111 4.25911 20.9111C4.25911 20.9111 4.37049 21.1528 4.40341 21.2641C4.29109 21.2346 4.04617 21.1307 4.04617 21.1307H4.04615ZM5.02453 21.8659C4.96317 21.8734 4.81781 21.9996 4.74491 21.929L4.41133 21.606L4.57811 21.4335L4.74555 21.2613L5.07882 21.5847C5.15172 21.6551 5.03013 21.8044 5.02453 21.8658V21.8659ZM10.5516 26.8163C10.5629 26.768 10.5552 26.7291 10.5292 26.704C10.521 26.696 10.5137 26.6916 10.5093 26.6916C10.4905 26.6916 10.4487 26.7419 10.4084 26.7907C10.3748 26.8312 10.333 26.8815 10.2796 26.9364C10.2265 26.9915 10.1773 27.0348 10.1379 27.0697C10.091 27.111 10.0424 27.1539 10.0419 27.1732C10.0419 27.1777 10.0467 27.1849 10.0552 27.1931C10.0725 27.21 10.0956 27.2183 10.1236 27.2183C10.1665 27.2183 10.2594 27.1969 10.3992 27.0525C10.5054 26.9431 10.5408 26.8637 10.5516 26.8163L10.5516 26.8163ZM10.5536 27.2018C10.4809 27.277 10.4071 27.3304 10.3662 27.3577C10.3952 27.3863 10.4776 27.4371 10.5807 27.4371C10.6395 27.4371 10.6944 27.4202 10.7446 27.3869C10.8474 27.2216 10.7481 27.0526 10.7035 27.0096C10.6774 27.0514 10.6262 27.127 10.5536 27.2018L10.5536 27.2018ZM9.42791 26.2827C9.37497 26.331 9.25253 26.6665 9.30595 26.8708C9.32895 26.9583 9.37851 26.9957 9.46242 26.9913C9.54921 26.986 9.59653 26.9419 9.61116 26.8522C9.64444 26.6482 9.48566 26.3239 9.42789 26.2827L9.42791 26.2827ZM9.3609 25.3503C9.36391 25.3561 9.98892 25.8915 10.1986 26.0853C10.248 26.1311 10.3162 26.1417 10.3854 26.1073C10.4248 26.0877 10.474 26.0651 10.5248 26.0424C11.1498 25.8273 12.1779 25.803 12.555 25.8193C12.782 25.8289 12.8622 25.6978 12.8396 25.5921C12.7657 25.247 12.7492 24.6279 13.0469 24.2078C12.7243 24.3127 12.4131 24.5931 12.4131 24.5931C12.3064 24.3741 12.2617 23.893 12.2838 23.6609C11.99 23.7635 11.7282 24.0356 11.7282 24.0356C11.6131 23.7383 11.5772 23.1758 11.6135 22.8561C10.8832 23.0937 11.5657 24.3457 10.6753 24.3061C10.9255 24.6586 11.226 24.5153 11.4979 24.5153C11.6885 24.5153 11.9254 24.6369 11.887 24.9146C11.8591 25.1158 10.6645 25.3662 10.1841 25.3662C9.84824 25.3662 9.62336 25.2652 9.45483 25.0382C9.37376 24.9291 9.29108 24.8797 9.19847 24.8936C9.08353 24.9108 8.94911 25.0253 8.94911 25.2903C8.94911 25.478 9.02704 25.8895 9.25846 25.8895C9.42103 25.8895 9.42822 25.5643 9.36088 25.3504L9.3609 25.3503ZM10.1333 26.7948C10.2424 26.682 10.2806 26.5999 10.2536 26.5358C10.2146 26.4433 9.96654 26.1744 9.64175 25.8709C9.63206 25.9336 9.61759 25.9955 9.59845 26.0561C9.81732 26.3377 9.8991 26.6401 9.82531 26.8941C9.85202 26.9114 9.86857 26.9193 9.87826 26.923C9.96228 26.9555 10.0672 26.8631 10.1333 26.7948H10.1333ZM8.55292 25.2631C8.55133 25.2647 8.51092 25.3035 8.48477 25.3558C8.55271 25.3562 8.63186 25.3676 8.70306 25.3863C8.69833 25.3249 8.69365 25.2418 8.69982 25.1701C8.63973 25.1832 8.57521 25.2396 8.55294 25.2631H8.55292ZM19.4697 27.1977C19.6755 27.1065 19.8239 26.8591 19.8629 26.6172C19.7325 26.6793 19.5855 26.7096 19.4161 26.7096C18.9499 26.7096 18.3641 26.4578 17.8333 26.2296C17.8333 26.2296 17.7188 26.3231 17.5291 26.3427C18.0648 26.5026 19.1174 27.0699 19.1947 27.4338C19.2464 27.6771 19.0831 27.77 19.0831 27.77C18.8489 27.3989 18.2453 26.8227 17.4397 26.5345C17.4414 26.6701 17.4146 26.7653 17.4146 26.7653C17.4146 26.7653 17.2511 26.8044 16.9039 26.7458C17.2075 26.9918 18.005 27.8607 18.0916 28.5199C18.1493 28.9601 17.8326 28.9804 17.8326 28.9804C17.7874 28.3184 17.4298 27.6334 16.7846 26.9456C16.7846 26.9456 16.6788 27.1067 16.5381 27.188C16.5381 27.188 16.2998 27.147 16.102 27.0199C16.1782 27.8933 16.2232 29.0279 16.1759 29.3713C16.1429 29.6105 16.0003 29.7107 16.0003 29.7107C16.0003 29.7107 15.8571 29.6104 15.824 29.3713C15.7769 29.0279 15.8218 27.8933 15.8979 27.0199C15.7002 27.147 15.4618 27.188 15.4618 27.188C15.3212 27.1068 15.2155 26.9456 15.2155 26.9456C14.5701 27.6335 14.2126 28.3184 14.1674 28.9804C14.1674 28.9804 13.8507 28.9601 13.9085 28.52C13.995 27.8607 14.7926 26.9918 15.0961 26.7459C14.7489 26.8044 14.5854 26.7654 14.5854 26.7654C14.5854 26.7654 14.5587 26.6702 14.5603 26.5345C13.7548 26.8227 13.1513 27.3989 12.917 27.7701C12.917 27.7701 12.7536 27.6771 12.8054 27.4338C12.8827 27.0699 13.9353 26.5026 14.471 26.3427C14.2813 26.3232 14.1668 26.2296 14.1668 26.2296C13.636 26.4579 13.0502 26.7096 12.584 26.7096C12.4146 26.7096 12.2675 26.6793 12.1372 26.6172C12.1762 26.8592 12.3246 27.1065 12.5303 27.1977C11.8101 27.6898 12.2548 28.8431 11.2889 28.6263C11.8275 29.5973 12.917 29.6949 12.917 29.6949C12.6756 29.1812 12.9765 27.614 14.4225 26.9019C13.5324 27.7636 13.1269 28.8083 13.3631 29.5453C13.5797 30.2218 14.2841 30.496 14.8144 30.5077C14.4394 29.3892 14.6705 28.1082 15.4488 27.3018C15.1153 28.1862 14.6463 30.5467 16.0004 30.9996C17.3542 30.5467 16.8849 28.1862 16.5513 27.3018C17.3297 28.1082 17.5608 29.3892 17.1858 30.5077C17.7161 30.496 18.4204 30.2218 18.6372 29.5453C18.8733 28.8083 18.4677 27.7636 17.5777 26.9019C19.0237 27.614 19.3245 29.1812 19.0831 29.6949C19.0831 29.6949 20.1727 29.5973 20.7113 28.6263C19.7453 28.843 20.1901 27.6898 19.4698 27.1977L19.4697 27.1977ZM16.1152 7.74232C16.1152 7.67301 16.0588 7.61655 15.9897 7.61655C15.9205 7.61655 15.8643 7.67301 15.8643 7.74232C15.8643 7.81182 15.9205 7.86832 15.9897 7.86832C16.0588 7.86832 16.1152 7.81182 16.1152 7.74232ZM16.7482 7.74232C16.7482 7.67301 16.6921 7.61655 16.6227 7.61655C16.5536 7.61655 16.4974 7.67301 16.4974 7.74232C16.4974 7.81182 16.5536 7.86832 16.6227 7.86832C16.6921 7.86832 16.7482 7.81182 16.7482 7.74232ZM15.7647 4.47722C15.7647 4.60701 15.87 4.71297 15.9995 4.71297C16.1292 4.71297 16.2345 4.60701 16.2345 4.47722C16.2345 4.34725 16.1292 4.24138 15.9995 4.24138C15.87 4.24138 15.7647 4.34723 15.7647 4.4772V4.47722ZM15.8403 3.9763H16.16L16.1254 3.6005L16.4727 3.63649V3.33923L16.1254 3.3751L16.16 2.99951H15.8403L15.8747 3.3751L15.5275 3.33923V3.63649L15.8747 3.6005L15.8403 3.97628L15.8403 3.9763ZM15.4822 7.7423C15.4822 7.67299 15.4258 7.61653 15.3566 7.61653C15.2875 7.61653 15.2312 7.67299 15.2312 7.7423C15.2312 7.81179 15.2875 7.8683 15.3566 7.8683C15.4258 7.8683 15.4822 7.81179 15.4822 7.7423V7.7423ZM14.7287 8.20866C14.7626 8.22055 14.8019 8.22702 14.8483 8.22702H17.1521C17.1986 8.22702 17.2378 8.22055 17.2716 8.20866C17.346 8.18273 17.3912 8.12838 17.4088 8.04153H14.5915C14.609 8.12838 14.6543 8.18268 14.7287 8.20868V8.20866ZM14.8554 7.7423C14.8554 7.67299 14.7991 7.61653 14.7299 7.61653C14.6607 7.61653 14.6043 7.67299 14.6043 7.7423C14.6043 7.81179 14.6607 7.8683 14.7298 7.8683C14.7991 7.8683 14.8553 7.81179 14.8553 7.7423H14.8554ZM17.3751 7.7423C17.3751 7.67299 17.3187 7.61653 17.2498 7.61653C17.1805 7.61653 17.1242 7.67299 17.1242 7.7423C17.1242 7.81179 17.1805 7.8683 17.2498 7.8683C17.3188 7.8683 17.3751 7.81179 17.3751 7.7423H17.3751ZM17.5257 7.44394C17.5906 7.36549 17.9136 6.75789 17.9136 6.14451C17.9136 5.59245 17.2006 5.28856 16.7764 5.27467C16.7273 6.06326 16.4117 7.30114 16.0003 7.30114C15.6109 7.30114 15.2726 6.0704 15.2241 5.27465C14.8 5.28858 14.087 5.59247 14.087 6.14453C14.087 6.75792 14.4098 7.36552 14.4748 7.44394H17.5257H17.5257ZM16.0003 6.90948C16.194 6.90948 16.4444 6.12415 16.5084 5.38084C16.5084 5.23035 16.3146 5.00016 16.0003 4.99417C15.6859 5.00013 15.4921 5.23033 15.4921 5.38084C15.5483 6.074 15.8095 6.90948 16.0003 6.90948H16.0003ZM9.84119 10.9183C9.46523 11.4214 9.98514 11.972 10.0172 12.01C10.0398 12.0369 10.0592 12.0247 10.0557 11.9946C10.053 11.9688 10.3263 11.193 11.8996 11.6015C11.9332 11.6103 11.9539 11.611 11.9224 11.5792C11.6317 11.3551 11.2869 10.8526 11.1754 10.4484C11.1754 10.4484 10.2172 10.4152 9.84117 10.9183H9.84119ZM10.6846 10.8131C10.6846 10.6725 10.8947 10.6338 11.0155 10.6338C11.0155 10.6338 11.0685 10.7695 11.1217 10.8446C10.9992 10.7913 10.8289 10.7859 10.6846 10.8131V10.8131ZM11.5198 10.1566C11.4151 10.1566 11.376 10.2214 11.4102 10.3337C11.7717 11.5192 12.7572 11.8004 13.1463 12.3139C13.1463 12.3139 13.1435 12.154 13.324 11.7722C13.4468 11.9686 13.7796 12.3362 13.9959 12.383C13.9442 12.2772 13.8827 11.8598 13.9306 11.5793C14.4413 12.014 15.0709 12.0994 15.4087 11.8486C15.1211 11.8593 14.7465 11.5478 14.5579 11.2714C14.8212 11.3307 15.1836 11.2696 15.2583 11.196C15.092 11.1566 14.8903 11.013 14.7689 10.8766C14.9557 10.864 15.361 10.7151 15.4769 10.5051C15.3143 10.541 15.0734 10.4764 14.9165 10.3956C15.036 10.3327 15.3342 10.0217 15.4058 9.74871C14.9822 9.95079 14.314 10.1518 13.3241 10.1518C13.3241 10.1518 11.5749 10.1566 11.5197 10.1566L11.5198 10.1566ZM12.6125 10.6971C12.3327 10.805 12.1924 10.9506 12.1924 10.9506C12.1924 10.9506 12.0581 10.7361 12.0152 10.6672C11.9724 10.5983 11.9589 10.5138 12.1036 10.5138H12.9712C12.9712 10.5714 12.8923 10.5892 12.6125 10.6971L12.6125 10.6971ZM9.65083 12.6262C9.74135 12.7431 9.99757 13.1 10.5596 12.7809C11.1216 12.4618 11.4114 12.288 11.4114 12.288C11.4114 12.288 11.3236 12.4527 11.3903 12.6502C11.3941 12.6615 11.4074 12.661 11.4124 12.6493C11.4684 12.5215 11.9565 12.1517 12.5789 12.1005C12.3507 11.9065 12.1004 11.7335 12.1004 11.7335C11.8345 11.7753 11.319 11.9522 10.6523 12.3735C9.98545 12.7948 9.67827 12.6188 9.66551 12.6109C9.65279 12.603 9.63473 12.6055 9.6508 12.6262H9.65083ZM17.6152 26.0768C17.7112 26.047 17.7915 25.9993 17.8329 25.9459C17.4022 25.9278 17.0467 25.566 16.9165 25.3429C16.7735 25.5731 16.5181 25.753 16.5181 25.753C16.3363 25.7063 16.0877 25.5136 16.0002 25.3662C15.9128 25.5136 15.6642 25.7064 15.4823 25.753C15.4823 25.753 15.227 25.5731 15.0839 25.3429C14.9538 25.5661 14.5982 25.9278 14.1675 25.9459C14.2089 25.9994 14.2893 26.047 14.3853 26.0768C14.4496 26.0969 14.5207 26.1092 14.5923 26.1092C14.6682 26.1092 14.7444 26.0958 14.8127 26.0647C14.7697 26.2167 14.7554 26.4044 14.7869 26.5331C14.7869 26.5331 15.0159 26.5507 15.2523 26.4638C15.2694 26.6028 15.3346 26.7711 15.4416 26.885C15.4627 26.9072 15.4846 26.9282 15.5088 26.9456C15.6358 26.9456 15.9424 26.8017 16.0002 26.713C16.058 26.8016 16.3646 26.9456 16.4916 26.9456C16.5157 26.9282 16.5378 26.9072 16.5588 26.8849C16.6658 26.7711 16.7311 26.6028 16.748 26.4638C16.8544 26.5157 16.978 26.5365 17.1147 26.5365C17.1477 26.5364 17.1806 26.5353 17.2135 26.5331C17.2451 26.4044 17.2307 26.2167 17.1877 26.0647C17.256 26.0958 17.3322 26.1092 17.408 26.1092C17.4798 26.1092 17.5509 26.0968 17.6151 26.0768L17.6152 26.0768ZM13.3169 17.1446C13.2325 17.1446 13.1803 17.197 13.1803 17.2813V22.4025C13.1803 22.8908 13.3781 23.1385 13.7683 23.1385L14.7445 23.1422C15.4134 23.1422 15.808 23.3661 16.0002 23.6437C16.1637 23.3848 16.623 23.1422 17.256 23.1422L18.2319 23.1385C18.6221 23.1385 18.82 22.8908 18.82 22.4025V17.2813C18.82 17.197 18.7676 17.1446 18.6835 17.1446H13.3168H13.3169ZM14.2704 21.9359C14.261 22.0492 14.3964 22.2553 14.62 22.1909C14.6132 22.2327 14.6258 22.3471 14.6758 22.4328C14.2797 22.5201 14.109 22.2033 14.2704 21.9359V21.9359ZM17.8606 20.2406C17.8061 20.1843 17.7524 20.1274 17.6994 20.0698C17.6429 20.0088 17.6026 19.985 17.5449 19.985C17.4153 19.985 17.2767 20.0541 17.2025 20.1018C17.1976 20.1038 17.1939 20.1084 17.192 20.1209C17.2708 20.1141 17.3499 20.1084 17.4284 20.0998C17.4974 20.092 17.5618 20.0947 17.6212 20.1378C17.668 20.1715 17.6944 20.2133 17.697 20.2678C17.7045 20.4422 17.8475 20.809 17.8564 20.9191C17.8676 20.9625 17.814 20.9751 17.7399 21.1776C17.6851 21.2371 17.5371 21.0481 17.5585 21.0039C17.6448 20.8945 17.6685 20.8263 17.6467 20.7448C17.6292 20.6793 17.5963 20.5623 17.572 20.4988C17.5394 20.4142 17.4662 20.3825 17.3752 20.4128C17.0183 20.528 16.9633 20.3745 16.6095 20.5189L17.0169 21.1322C17.0154 21.0877 16.9935 21.0075 16.9276 20.9498C16.9395 20.8879 17.068 20.8623 17.116 20.9203C17.175 20.9938 17.29 21.0986 17.3846 21.1154C17.5664 21.1481 17.5527 21.4166 18.0385 21.5064C17.9781 21.5673 17.8434 21.5466 17.7846 21.5191C17.8201 21.5723 17.8609 21.6226 17.9341 21.6408C17.8588 21.7143 17.6427 21.542 17.6648 21.7154C17.7022 21.6944 17.7539 21.6909 17.7977 21.7017C17.8946 21.7252 18.0537 22.2612 17.7187 22.4954C17.79 22.5162 17.8667 22.4796 17.939 22.4796C17.9814 22.4796 18.0211 22.5196 18.0253 22.5642C18.0565 22.5876 18.077 22.6162 18.0952 22.6529C18.07 22.661 18.0213 22.6535 17.9943 22.636C18.0052 22.6657 18.0026 22.7372 17.9912 22.7386C17.9609 22.7426 17.9376 22.7257 17.9066 22.7077C17.8635 22.7292 17.7218 22.7204 17.6816 22.6855C17.5747 22.7108 17.469 22.7448 17.3576 22.7448C17.2974 22.7448 17.2181 22.741 17.221 22.6695C17.2223 22.6346 17.2401 22.6167 17.2541 22.5785C17.2028 22.5272 17.1173 22.5769 17.0153 22.5865C16.8771 22.5994 16.8202 22.5785 16.7902 22.5511C16.9207 22.4336 16.8419 22.1473 16.6404 22.122C16.8062 22.2765 16.7845 22.5265 16.599 22.5827C16.6526 22.5996 16.6791 22.6231 16.6997 22.6602C16.7649 22.6866 16.7658 22.7326 16.761 22.7532C16.7253 22.7286 16.661 22.7042 16.6097 22.7108C16.606 22.7326 16.5966 22.7734 16.5773 22.7892C16.5551 22.7845 16.5262 22.7647 16.515 22.749C16.4558 22.7048 16.0866 22.7892 16.0642 22.7301C16.05 22.6753 16.1485 22.6291 16.2395 22.6096C16.0056 22.5261 15.8028 22.0976 15.4428 22.025C15.2758 21.9914 15.0496 22.0645 15.0496 22.2759C15.0496 22.3798 15.1354 22.4597 15.2282 22.4597C15.3136 22.4597 15.3563 22.4023 15.3563 22.344C15.3425 22.3542 15.334 22.3605 15.3256 22.3671C15.2734 22.4089 15.2068 22.4062 15.1586 22.3605C15.1162 22.3202 15.1162 22.2503 15.1574 22.203C15.1912 22.1637 15.2319 22.1415 15.2862 22.1337C15.4272 22.1138 15.5424 22.1575 15.6201 22.2676C15.6571 22.3202 15.6775 22.3764 15.6775 22.4308C15.6775 22.6744 15.4269 22.7297 15.2882 22.7297C14.9391 22.7297 14.7333 22.4863 14.7333 22.2048C14.7333 22.172 14.735 22.1387 14.7407 22.1052C14.7954 21.7883 15.0861 21.6558 15.3375 21.6162C15.3055 21.5059 15.2435 21.4167 15.1546 21.344C15.1103 21.3078 15.1058 21.2782 15.1337 21.2321C15.1717 21.1689 15.2116 21.1068 15.2284 21.0357C15.2322 21.0198 15.234 21.0029 15.2352 20.9856C15.11 21.0948 14.9349 21.1949 14.6927 21.2664C14.6163 21.3008 14.5759 21.3686 14.5661 21.4465C14.5551 21.5369 14.5525 21.6286 14.5509 21.7199C14.5504 21.7409 14.5661 21.7638 14.578 21.784C14.623 21.8593 14.6728 21.9326 14.6839 22.0265C14.6839 22.072 14.4487 22.0767 14.4487 22.0402C14.4465 21.8751 14.3333 21.8109 14.3455 21.7019C14.3768 21.5323 14.3837 21.3626 14.3552 21.1921C14.348 21.1492 14.3715 21.121 14.4029 21.0981C14.4529 21.0611 14.5059 21.0279 14.5558 20.9911C14.6735 20.9036 14.7222 20.7895 14.6946 20.648C14.691 20.6296 14.6827 20.6119 14.6745 20.5945C14.6159 20.4687 14.5731 20.3412 14.5731 20.1993C14.5731 20.0436 14.3749 20.0525 14.3879 20.2055C14.3919 20.2533 14.4286 20.3201 14.4491 20.366C14.6523 20.821 14.287 21.1487 13.9091 21.1485C14.3063 21.0146 13.8163 20.5197 13.8163 20.1504C13.8163 19.924 13.996 19.7565 14.2106 19.7565C14.458 19.7565 14.6149 19.9117 14.6598 19.9384C14.7795 19.7536 15.146 19.7203 15.2836 19.699C15.2731 19.5995 15.2875 19.5111 15.3502 19.4348C15.3543 19.4296 15.3568 19.4201 15.3546 19.4146C15.3351 19.3675 15.3142 19.3211 15.2872 19.2755C15.1744 19.3995 15.1473 19.5639 15.1473 19.6488C14.7295 19.6429 14.5452 19.4648 14.4217 19.3946C14.4222 19.3637 14.5333 19.1689 14.6319 19.0404C14.5238 19.1306 14.435 19.2321 14.3698 19.3538C14.31 19.3118 14.2472 19.2738 14.1858 19.2489C14.28 19.0526 14.4048 18.8998 14.5638 18.7402C14.3399 18.8206 14.145 19.067 14.0711 19.2218C14.0072 19.2147 13.9129 19.2123 13.8602 19.2223C14.1042 18.9318 14.2157 18.3596 14.7523 18.2312C14.6179 18.7619 14.9521 18.9776 15.1823 18.8391C15.1523 18.8391 15.1318 18.8437 15.1125 18.8391C14.6638 18.7283 14.9297 18.1236 14.821 17.9977C14.7798 17.95 14.7585 17.9062 14.7652 17.8458C14.7676 17.8245 14.7611 17.7999 14.7511 17.7803L14.5125 17.3926C14.4825 17.3438 14.5753 17.309 14.5954 17.3315L14.8387 17.7192C14.845 17.7289 14.8528 17.7431 14.8618 17.7447C14.9508 17.76 14.9784 17.8317 15.0143 17.8952C15.0257 17.9157 15.0347 17.9392 15.0368 17.9624C15.0385 17.98 15.0335 18.0047 15.0214 18.0168C14.9827 18.0549 14.9902 18.0923 15.0202 18.1418C15.0682 18.221 16.5098 20.5554 16.5098 20.5554C16.1967 20.68 15.6303 20.6901 15.4662 20.6747C15.4322 20.7557 15.379 20.8412 15.3003 20.9235C15.3788 20.8738 15.4396 20.8107 15.4957 20.7421C15.5591 20.7492 15.654 20.7739 15.7511 20.7808C15.6937 20.9002 15.6074 21.019 15.4967 21.1185C15.4446 21.1685 15.38 21.2126 15.4038 21.2926C15.4305 21.3825 15.6027 21.554 15.6654 21.6652C15.7277 21.678 15.8329 21.6996 15.9101 21.7296C15.9541 21.8215 16.1029 21.937 16.2823 21.8772C15.9216 21.8728 15.9483 21.5135 16.0603 21.3235C16.0482 21.5 16.1359 21.6465 16.2469 21.6632C16.0804 21.5155 16.0971 21.18 16.2592 20.9959C16.2823 21.2948 16.3755 21.4518 16.5089 21.4873C16.3326 21.3296 16.2268 20.9649 16.493 20.6991C16.5136 21.3812 17.156 21.2582 17.2144 22.0478C17.4523 22.0478 17.4659 21.7362 17.3332 21.679C17.2558 21.6508 17.1859 21.6012 17.1463 21.5337C17.1298 21.5054 17.1127 21.4547 17.0992 21.425C17.0285 21.2221 16.8288 21.2349 16.8336 21.1863C16.8384 21.1698 16.8698 21.1623 16.9139 21.1623L16.5376 20.5971L16.518 20.5676C16.5634 20.5587 16.5734 20.533 16.5268 20.4615C16.5268 20.4615 15.1148 18.1788 15.1081 18.1658C15.2393 18.1436 15.3655 18.1782 15.4883 18.2244C15.4555 18.1949 15.4288 18.1536 15.423 18.111C15.4183 18.0767 15.4196 18.0567 15.448 18.035C15.478 18.0112 15.5069 17.9837 15.5279 17.9526C15.598 17.849 15.7268 17.7983 15.8439 17.8307C16.0205 17.8795 16.083 18.0737 15.9531 18.1758C15.884 18.3239 15.7984 18.3052 15.7807 18.3716C15.8154 18.3872 16.0569 18.5686 16.0731 18.6449C16.0011 18.7906 15.9653 19.0183 16.0278 19.1454C16.0744 18.5399 16.4495 18.2437 16.8148 18.2437C16.9016 18.2437 16.9878 18.2584 17.0743 18.287C17.1216 18.3025 17.1689 18.3249 17.2083 18.354C17.2654 18.3965 17.3185 18.4438 17.3669 18.4955C17.4382 18.5716 17.5035 18.653 17.6248 18.6582C17.5893 18.7074 17.549 18.7433 17.5076 18.7786C17.4779 18.8045 17.4629 18.8357 17.4592 18.8748C17.4508 18.9589 17.4224 19.0359 17.3587 19.0978C17.3502 19.1062 17.3436 19.1163 17.3394 19.1274C17.2988 19.2418 17.2577 19.3557 17.2196 19.4707C17.2102 19.4987 17.2123 19.5373 17.1734 19.5369C17.1396 19.5364 17.0988 19.5269 17.0736 19.5069C17.02 19.4647 17.0008 19.4034 17.02 19.3386C17.0391 19.2741 17.02 19.2188 16.999 19.1589C16.9775 19.099 16.9701 19.0341 16.9556 18.9657C16.8559 18.9318 16.6686 19.1401 16.8116 19.3146C16.9044 19.4433 16.9878 19.6803 17.0023 19.7773C17.0053 19.7868 16.9178 19.8404 16.7973 19.8255C16.3901 19.7748 16.1325 19.5 16.0542 19.2682C16.0479 19.6609 16.3833 19.9521 16.8803 19.9239C16.9006 20.0154 16.9775 20.0775 17.0671 20.0804C17.0857 20.0213 17.0853 19.8974 17.0701 19.8186C17.0633 19.784 17.082 19.7662 17.115 19.758C17.2237 19.7311 17.3652 19.7416 17.4862 19.6996C17.5935 19.6621 17.6443 19.684 17.711 19.8102C17.7616 19.9054 17.848 20.0078 17.9296 20.0784C17.9639 20.1079 17.9982 20.1379 18.0306 20.1695C18.0718 20.2096 18.0933 20.2569 18.0965 20.3153C18.0859 20.4068 18.0984 20.5911 18.0984 20.594C18.0748 20.6544 17.903 20.5904 17.8753 20.5256C17.8648 20.5014 17.9488 20.3315 17.8606 20.2405L17.8606 20.2406ZM20.825 10.4484C20.7136 10.8526 20.3688 11.3551 20.0781 11.5792C20.0466 11.6109 20.0672 11.6103 20.1009 11.6015C21.6741 11.193 21.9475 11.9688 21.9447 11.9946C21.9413 12.0248 21.9607 12.0369 21.9832 12.01C22.0153 11.972 22.5352 11.4214 22.1593 10.9183C21.7832 10.4152 20.825 10.4485 20.825 10.4485V10.4484ZM20.8788 10.8446C20.9319 10.7695 20.985 10.6338 20.985 10.6338C21.1057 10.6338 21.3158 10.6726 21.3158 10.8131C21.1715 10.7858 21.0013 10.7913 20.8787 10.8446H20.8788ZM22.3496 12.6262C22.3657 12.6055 22.3476 12.603 22.3349 12.6109C22.3222 12.6188 22.0149 12.7948 21.3482 12.3735C20.6814 11.9522 20.166 11.7753 19.9001 11.7335C19.9001 11.7335 19.6497 11.9065 19.4214 12.1005C20.0439 12.1517 20.532 12.5215 20.588 12.6493C20.5931 12.661 20.6062 12.6615 20.6101 12.6502C20.6768 12.4527 20.589 12.288 20.589 12.288C20.589 12.288 20.8788 12.4618 21.4408 12.7809C22.0028 13.1 22.2591 12.7431 22.3496 12.6262L22.3496 12.6262ZM17.0839 10.3956C16.9271 10.4764 16.6861 10.541 16.5236 10.5051C16.6395 10.7151 17.0448 10.864 17.2315 10.8766C17.1101 11.013 16.9084 11.1566 16.7421 11.196C16.8169 11.2696 17.1792 11.3306 17.4425 11.2714C17.2539 11.5478 16.8794 11.8593 16.5917 11.8486C16.9296 12.0995 17.5593 12.014 18.0699 11.5793C18.1178 11.8598 18.0564 12.2772 18.0046 12.383C18.2209 12.3362 18.5537 11.9685 18.6765 11.7723C18.857 12.154 18.8543 12.314 18.8543 12.314C19.2434 11.8005 20.2288 11.5193 20.5903 10.3337C20.6245 10.2214 20.5854 10.1566 20.4808 10.1566C20.4255 10.1566 18.6764 10.1519 18.6764 10.1519C17.6864 10.1519 17.0182 9.95081 16.5947 9.74873C16.6662 10.0217 16.9644 10.3328 17.084 10.3956L17.0839 10.3956ZM19.8969 10.5138C20.0414 10.5138 20.028 10.5983 19.9852 10.6672C19.9423 10.7361 19.808 10.9507 19.808 10.9507C19.808 10.9507 19.6678 10.805 19.388 10.6971C19.1081 10.5892 19.0293 10.5714 19.0293 10.5138H19.8969V10.5138ZM13.4238 12.2897C13.3674 12.4448 13.3508 12.6159 13.3808 12.8385C13.5627 13.2223 13.6507 13.9348 13.5945 14.3331C13.8843 13.9405 14.013 13.499 14.0959 13.1457C14.2621 13.3108 14.4777 13.5471 14.6281 13.7386C14.6539 13.5312 14.6998 13.2752 14.7399 13.0902C14.9564 13.291 15.4055 13.5431 15.7093 13.6324C15.5048 12.7946 15.155 12.2606 15.155 12.2606C14.858 12.2896 14.3798 12.2194 14.1648 12.014C14.2032 12.3175 14.4182 12.6665 14.4182 12.6665C13.9575 12.7102 13.6311 12.5574 13.4238 12.2897H13.4238ZM18.5766 12.2897C18.3693 12.5575 18.043 12.7102 17.5822 12.6665C17.5822 12.6665 17.7972 12.3175 17.8356 12.014C17.6206 12.2194 17.1425 12.2897 16.8455 12.2606C16.8455 12.2606 16.4957 12.7946 16.2911 13.6324C16.5949 13.543 17.044 13.291 17.2605 13.0902C17.3007 13.2751 17.3464 13.5312 17.3723 13.7386C17.5227 13.5472 17.7383 13.3108 17.9046 13.1457C17.9874 13.499 18.1161 13.9405 18.4059 14.3331C18.3497 13.9347 18.4378 13.2222 18.6196 12.8385C18.6496 12.6159 18.633 12.4448 18.5766 12.2896L18.5766 12.2897ZM14.6135 14.9292C14.7874 15.2007 14.9421 15.5271 14.9957 15.8178C15.1624 15.622 15.3384 15.2815 15.4577 14.8748C15.604 15.0523 15.8595 15.414 16.0002 15.7122C16.1409 15.414 16.3964 15.0523 16.5426 14.8748C16.662 15.2815 16.838 15.622 17.0047 15.8178C17.0583 15.5271 17.213 15.2007 17.3869 14.9293C17.5191 15.4575 18.0292 15.9714 18.5556 16.0101C18.2132 15.5783 18.199 14.832 18.2232 14.5835C17.9952 14.2392 17.8451 13.9286 17.7732 13.7175C17.6186 13.866 17.3793 14.1546 17.1647 14.4882C17.1647 14.4841 17.1586 14.0699 17.073 13.5669C16.8517 13.7612 16.4509 13.9017 16.2367 13.9563C16.1015 14.1704 16.0645 14.3374 16.0002 14.6062C15.9359 14.3374 15.8988 14.1704 15.7637 13.9563C15.5494 13.9017 15.1487 13.7612 14.9274 13.567C14.8418 14.0699 14.8356 14.4841 14.8356 14.4882C14.6209 14.1546 14.3818 13.866 14.2271 13.7175C14.1553 13.9286 14.0051 14.2392 13.777 14.5835C13.8014 14.8321 13.7871 15.5784 13.4447 16.0101C13.9712 15.9715 14.4812 15.4576 14.6134 14.9293L14.6135 14.9292ZM9.84396 21.177C10.1394 20.9898 10.3264 20.6497 10.5392 20.2337C10.4153 20.2835 10.2358 20.3374 10.0558 20.3737C9.88031 20.7034 9.63173 20.5755 9.62525 20.5287C9.67898 20.4709 9.74031 20.3854 9.78645 20.311C9.71164 20.1751 9.62152 19.9726 9.57183 19.8474C9.3207 20.3608 8.85943 20.8824 8.47315 21.0859C8.70043 21.3927 9.40484 21.4552 9.84394 21.1769L9.84396 21.177ZM10.7571 20.3116C10.5475 20.741 10.5968 21.4029 11.2639 21.4216C11.2086 20.953 11.426 20.5121 11.6584 20.3116C11.4585 20.3594 11.1331 20.6141 11.1331 20.6141C11.1331 20.6141 11.0841 20.7232 11.0742 20.8644C10.9346 20.8887 10.8574 20.7842 10.9154 20.5663C10.9154 20.5663 10.8145 20.4542 10.7571 20.3116V20.3116ZM7.45475 20.802C7.55309 20.8019 7.65105 20.7902 7.74652 20.7673C8.3907 20.6128 9.00414 20.0778 9.36877 19.6286C9.16049 19.6927 8.9501 19.7343 8.71688 19.7572C8.71688 19.7572 8.55356 19.9428 8.42781 20.0114C8.36409 20.0464 8.30041 20.0632 8.24007 20.0632C8.05783 20.0632 7.98045 19.918 7.98045 19.918C7.98045 19.918 8.27439 19.7812 8.46145 19.5869C8.42438 19.4437 8.40082 19.2453 8.39654 19.0475C7.8893 19.5423 6.93591 20.0231 6.26998 20.1164C6.40177 20.3829 6.86939 20.802 7.45477 20.802H7.45475ZM6.16503 19.7524C6.19846 19.7524 6.23186 19.7508 6.26513 19.7477C6.92719 19.6841 7.72624 19.2724 8.24078 18.916C8.07698 18.9483 7.64632 18.9576 7.44199 18.93C7.37131 18.9759 7.05974 19.1672 6.80049 19.1991C6.32763 19.2573 6.27761 18.9732 6.27761 18.9732C6.58141 18.9372 6.93163 18.8376 7.26639 18.6862C7.3 18.4414 7.35834 18.2232 7.40821 18.0623C6.67832 18.4571 5.48757 18.7347 4.78119 18.7439C4.92254 19.0698 5.47055 19.7524 6.16505 19.7524L6.16503 19.7524ZM6.26915 17.4366C6.3709 17.2618 6.53194 17.0552 6.67853 16.8867C6.09582 17.0425 5.34568 17.0751 4.948 17.0751C4.47914 17.0751 4.02358 17.043 3.76221 16.992C3.78542 17.4494 4.23344 18.2385 5.11742 18.3155C5.16351 18.3196 5.21452 18.3216 5.26907 18.3216C5.82055 18.3216 6.69761 18.1049 7.30114 17.8969C6.87081 17.8432 6.45519 17.744 6.36041 17.7054C6.13598 17.7679 5.59986 17.8552 5.42576 17.8459C5.03056 17.8248 4.98825 17.5302 4.98825 17.5302C4.98825 17.5302 5.69947 17.5594 6.2691 17.4366H6.26915ZM4.14715 16.5984C4.47555 16.7015 4.99929 16.7606 5.58417 16.7606C5.94098 16.7606 6.31741 16.7296 6.62358 16.6873C6.2929 16.578 5.88485 16.4127 5.61967 16.249C5.28822 16.2425 4.83832 16.2334 4.54942 16.1475C4.12455 16.0212 4.13058 15.739 4.13814 15.6756C4.50545 15.8191 5.1303 15.9563 5.59213 15.983C5.76239 15.8237 6.02539 15.6339 6.30288 15.4687C5.20696 15.478 3.8079 15.0565 3.02182 14.6523C2.84209 16.0726 3.83524 16.5004 4.14715 16.5984V16.5984ZM6.55621 13.6534C6.38709 13.3383 6.22218 12.9144 6.20041 12.549C5.68786 12.1579 5.10279 11.6602 4.76427 11.0913C4.56863 10.7625 4.64084 10.4743 4.7794 10.3751C4.88505 10.7324 5.57334 11.7327 6.19725 12.2343C6.20216 11.9137 6.25769 11.545 6.34375 11.2677C5.61835 10.501 4.80525 9.23112 4.60884 8.73361C4.38807 8.91118 4.00753 9.35788 3.914 9.9873C3.81981 10.6209 4.03133 11.2717 4.54263 11.9218C4.93587 12.4219 5.8015 13.1675 6.55621 13.6534V13.6534ZM6.34774 15.2646C5.84906 14.9435 5.50338 14.6455 5.31916 14.3779C4.90245 14.2205 4.36366 13.9802 4.09822 13.7637C3.73351 13.4665 3.84898 13.1989 3.8915 13.1455C4.2126 13.4639 4.908 13.9229 5.40191 14.1271C5.71027 14.0104 6.13875 13.9249 6.55619 13.875C5.31901 13.4002 3.99098 12.509 3.29697 11.6689C3.15624 11.9343 2.58457 13.1827 3.65634 14.2064C4.22078 14.7457 5.38345 15.1178 6.34767 15.2647L6.34774 15.2646ZM22.4286 19.8474C22.3789 19.9726 22.2887 20.1751 22.2139 20.3111C22.26 20.3854 22.3214 20.4709 22.3751 20.5288C22.3686 20.5755 22.1201 20.7034 21.9446 20.3737C21.7646 20.3375 21.5851 20.2835 21.4612 20.2337C21.6741 20.6497 21.8609 20.9898 22.1564 21.177C22.5956 21.4552 23.3 21.3928 23.5272 21.0859C23.1409 20.8824 22.6796 20.3608 22.4286 19.8474L22.4286 19.8474ZM21.2433 20.3116C21.1859 20.4542 21.085 20.5663 21.085 20.5663C21.143 20.7842 21.0658 20.8887 20.9261 20.8644C20.9163 20.7232 20.8672 20.6141 20.8672 20.6141C20.8672 20.6141 20.5418 20.3594 20.342 20.3116C20.5743 20.5121 20.7918 20.953 20.7365 21.4216C21.4036 21.4029 21.4529 20.741 21.2433 20.3116V20.3116ZM23.539 19.5869C23.726 19.7812 24.0199 19.9181 24.0199 19.9181C24.0199 19.9181 23.9425 20.0632 23.7604 20.0632C23.6999 20.0632 23.6363 20.0465 23.5725 20.0114C23.4468 19.9428 23.2835 19.7572 23.2835 19.7572C23.0503 19.7343 22.8398 19.6927 22.6315 19.6287C22.9962 20.0778 23.6097 20.6128 24.2538 20.7673C24.3493 20.7902 24.4473 20.8019 24.5456 20.802C25.1309 20.802 25.5986 20.3829 25.7304 20.1164C25.0645 20.0231 24.1111 19.5423 23.6038 19.0475C23.5995 19.2453 23.576 19.4437 23.539 19.5869V19.5869ZM24.7339 18.6862C25.0688 18.8376 25.419 18.9372 25.7229 18.9732C25.7229 18.9732 25.6728 19.2574 25.1999 19.1991C24.9407 19.1672 24.629 18.9759 24.5584 18.93C24.3541 18.9576 23.9233 18.9483 23.7596 18.916C24.2742 19.2724 25.0732 19.6841 25.7352 19.7477C25.7685 19.7508 25.8019 19.7524 25.8354 19.7524C26.5299 19.7524 27.0778 19.0698 27.2192 18.7439C26.5128 18.7347 25.3221 18.4571 24.5922 18.0623C24.6421 18.2232 24.7004 18.4414 24.7339 18.6862V18.6862ZM25.3218 16.8867C25.4684 17.0552 25.6294 17.2618 25.7312 17.4366C26.3008 17.5594 27.012 17.5302 27.012 17.5302C27.012 17.5302 26.9698 17.8248 26.5747 17.8458C26.4005 17.8552 25.8644 17.7679 25.64 17.7053C25.5451 17.7439 25.1296 17.8431 24.6993 17.8969C25.3027 18.1049 26.1799 18.3216 26.7313 18.3216C26.7859 18.3216 26.8369 18.3196 26.8829 18.3155C27.7669 18.2385 28.215 17.4495 28.2382 16.9921C27.9769 17.043 27.5212 17.0752 27.0524 17.0752C26.6548 17.0752 25.9045 17.0426 25.3218 16.8867H25.3218ZM28.9786 14.6524C28.1925 15.0565 26.7935 15.4781 25.6975 15.4687C25.975 15.634 26.238 15.8238 26.4082 15.9831C26.87 15.9563 27.4949 15.8191 27.8621 15.6757C27.8697 15.739 27.8758 16.0212 27.4509 16.1475C27.1621 16.2334 26.7122 16.2425 26.3807 16.249C26.1155 16.4127 25.7075 16.578 25.3767 16.6873C25.6829 16.7296 26.0594 16.7606 26.4162 16.7606C27.0011 16.7606 27.5248 16.7015 27.8532 16.5984C28.1651 16.5004 29.1583 16.0726 28.9786 14.6524H28.9786ZM27.221 10.3751C27.3596 10.4743 27.4318 10.7625 27.2362 11.0913C26.8975 11.6602 26.3126 12.1579 25.8 12.549C25.7782 12.9144 25.6132 13.3383 25.4441 13.6534C26.1988 13.1675 27.0646 12.4219 27.4577 11.9219C27.969 11.2717 28.1805 10.6209 28.0863 9.98735C27.9928 9.35788 27.6123 8.91118 27.3915 8.73364C27.1951 9.23114 26.382 10.501 25.6566 11.2677C25.7426 11.545 25.7982 11.9137 25.8032 12.2343C26.427 11.7327 27.1153 10.7324 27.221 10.3751V10.3751ZM26.5985 14.1271C27.0924 13.9229 27.7878 13.464 28.1088 13.1455C28.1514 13.199 28.2668 13.4665 27.9021 13.7637C27.6367 13.9803 27.0979 14.2205 26.6812 14.3779C26.497 14.6455 26.1513 14.9435 25.6526 15.2647C26.6168 15.1178 27.7796 14.7457 28.3441 14.2065C29.4158 13.1828 28.8441 11.9343 28.7034 11.669C28.0094 12.5091 26.6814 13.4003 25.4441 13.875C25.8616 13.9249 26.2901 14.0104 26.5984 14.1272L26.5985 14.1271ZM23.7156 12.69C23.3138 13.5958 22.2951 14.4034 21.6362 14.8077C21.3355 14.9921 21.4453 15.3418 21.5414 15.497C22.4391 16.9463 20.8067 18.0264 19.3322 17.3082C19.6539 17.3116 19.9787 17.0459 20.0237 16.8092C19.9215 16.895 19.5028 16.8478 19.379 16.7367C19.5689 16.6401 19.6141 16.5423 19.624 16.4507C19.3891 16.5908 18.9142 16.6102 18.7743 16.3734C17.9953 16.353 17.4771 15.7621 17.4197 15.5916C17.362 15.773 17.2687 16.09 17.2381 16.4028C17.0268 16.2638 16.666 15.9492 16.4779 15.5225C16.265 15.818 16.1044 16.1509 16.0002 16.5016C15.8959 16.1509 15.7355 15.818 15.5225 15.5225C15.3343 15.9492 14.9735 16.2638 14.7623 16.4029C14.7316 16.09 14.6384 15.7731 14.5806 15.5917C14.5233 15.7622 14.0051 16.3531 13.226 16.3735C13.0861 16.6102 12.6114 16.5909 12.3765 16.4508C12.3862 16.5423 12.4314 16.6402 12.6213 16.7367C12.4976 16.8479 12.0789 16.8951 11.9766 16.8092C12.0216 17.046 12.3465 17.3116 12.6682 17.3082C11.1937 18.0265 9.5612 16.9464 10.459 15.4971C10.5552 15.3419 10.6648 14.9922 10.3642 14.8078C9.70526 14.4034 8.68653 13.5958 8.28472 12.6899C8.23697 13.0593 8.27337 13.976 8.68152 14.5463C8.38333 14.6572 8.00089 14.837 7.7438 15.0038C7.90642 15.1834 8.28502 15.4937 8.5394 15.6624C8.33175 15.8419 8.0094 16.1855 7.84023 16.4105C8.05457 16.5345 8.48645 16.6849 8.81649 16.7864C8.66391 17.0311 8.42932 17.4725 8.37037 17.7352C8.73991 17.7874 9.11717 17.7826 9.45008 17.7724C9.40761 18.0788 9.43555 18.4634 9.4689 18.7436C9.81186 18.6957 10.1891 18.5604 10.4395 18.4323C10.487 18.6437 10.6178 19.0338 10.7351 19.2427C11.0605 18.9425 11.4897 18.8051 11.8869 18.8846C12.7004 19.0475 12.9422 19.8474 12.9422 19.8474L12.9434 17.4142V17.1425C12.9434 16.9908 13.0274 16.9106 13.178 16.9106H18.8224C18.9731 16.9106 19.057 16.9909 19.057 17.1425V17.4141L19.0582 19.8474C19.0582 19.8474 19.3 19.0475 20.1135 18.8846C20.5108 18.8051 20.94 18.9424 21.2654 19.2426C21.3827 19.0338 21.5136 18.6436 21.561 18.4322C21.8113 18.5604 22.1886 18.6956 22.5316 18.7436C22.5649 18.4634 22.5928 18.0788 22.5504 17.7724C22.8795 17.8056 23.2581 17.8056 23.6301 17.7352C23.5712 17.4725 23.3365 17.0311 23.1839 16.7864C23.5272 16.6969 23.9458 16.5345 24.1602 16.4105C23.9911 16.1856 23.6687 15.8419 23.4611 15.6624C23.7154 15.4937 24.094 15.1834 24.2567 15.0038C23.9996 14.837 23.6171 14.6572 23.3189 14.5464C23.727 13.976 23.7635 13.0593 23.7157 12.69H23.7156ZM13.4572 9.84154L13.4236 9.92692C14.4098 9.92692 15.3579 9.59886 15.6108 8.45646H14.8554C14.7213 9.27948 14.2237 9.84154 13.4571 9.84154H13.4572ZM9.19339 7.98292C9.19339 7.98292 9.73284 8.10442 9.94394 8.84242C10.1551 9.58043 10.6857 9.93341 11.23 9.93341L11.1965 9.83284C10.8798 9.79452 10.4332 9.35597 10.3497 8.54379C10.2654 7.72612 10.0591 7.62077 10.0591 7.62077C9.84599 7.47747 9.31023 7.85597 9.19332 7.98294L9.19339 7.98292ZM7.61543 8.31302C8.06539 8.2987 8.36818 8.43782 8.9337 7.93701C9.60129 7.34552 9.91823 7.44662 9.91823 7.44662C9.57753 7.23116 9.10244 7.13541 8.93928 7.25985C8.77612 7.38438 8.55526 7.71845 8.1841 7.95632C7.66102 8.29149 7.12377 8.20304 7.09973 8.51544H7.11429C7.11429 8.51544 7.16553 8.32748 7.61538 8.31302H7.61543ZM8.03048 10.2736C8.304 10.5357 8.32913 11.0744 8.32913 11.0744C8.32913 11.0744 8.65668 10.5034 8.38675 9.89642C8.1169 9.28953 7.56534 8.82386 8.10605 8.4694C7.77578 8.47211 7.41788 8.39826 7.26069 8.61594C7.21177 8.68372 7.16643 8.85176 7.33106 9.09084C7.54024 9.39467 8.06277 10.1011 7.6346 10.5716C7.94764 10.5154 8.03046 10.2736 8.03046 10.2736L8.03048 10.2736ZM11.4087 9.93018H13.2619C13.2619 9.93018 13.3078 9.82084 13.3662 9.66287H11.3045C11.363 9.82084 11.4087 9.93018 11.4087 9.93018V9.93018ZM12.5177 7.37196C12.5177 7.2736 12.4377 7.19371 12.3391 7.19371C12.2404 7.19371 12.1604 7.27357 12.1604 7.37196C12.1604 7.47042 12.2404 7.55018 12.3391 7.55018C12.4377 7.55018 12.5177 7.47045 12.5177 7.37196V7.37196ZM13.4433 9.46118C13.5225 9.21955 13.6117 8.85206 13.6117 8.67474C13.6117 8.35068 13.4323 7.99191 12.7847 7.88147C12.7847 8.27313 12.589 9.23273 12.3523 9.23273H12.3257C12.0892 9.23273 11.8934 8.28027 11.8934 7.88138C11.2437 7.99168 11.0589 8.35056 11.0589 8.67474C11.0589 8.85209 11.1483 9.21955 11.2276 9.46118H13.4433H13.4433ZM12.3391 8.96397C12.4624 8.96397 12.5623 8.33741 12.5623 8.02547C12.5623 7.85503 12.4624 7.74326 12.3391 7.74326C12.2157 7.74326 12.1158 7.85503 12.1158 8.02547C12.1158 8.33741 12.2157 8.96397 12.3391 8.96397H12.3391ZM12.2199 6.95607H12.4581L12.4284 6.659L12.7261 6.68874V6.45106L12.4284 6.48081L12.4581 6.18369H12.2199L12.2497 6.48081L11.9521 6.45106V6.68874L12.2497 6.659L12.22 6.9561L12.2199 6.95607ZM17.1449 8.45646H16.3895C16.6425 9.59888 17.5905 9.92692 18.5767 9.92692L18.5433 9.84154C17.7767 9.84154 17.279 9.27952 17.1449 8.45646H17.1449ZM20.7704 9.93344C21.3147 9.93344 21.8452 9.58045 22.0564 8.84242C22.2675 8.10446 22.807 7.98296 22.807 7.98296C22.6901 7.85604 22.1544 7.47751 21.9412 7.6208C21.9412 7.6208 21.735 7.72614 21.6507 8.54383C21.5672 9.35602 21.1207 9.79456 20.804 9.83289L20.7704 9.93346V9.93344ZM23.0667 7.93704C23.6322 8.43782 23.935 8.29874 24.385 8.31304C24.8348 8.3275 24.886 8.51547 24.886 8.51547H24.9006C24.8766 8.20306 24.3393 8.29151 23.8163 7.95634C23.4451 7.71848 23.2242 7.3844 23.0611 7.25987C22.8979 7.13541 22.4228 7.23118 22.0821 7.44665C22.0821 7.44665 22.3991 7.34555 23.0667 7.93704H23.0667ZM24.7396 8.61599C24.5825 8.3983 24.2246 8.47216 23.8943 8.46943C24.435 8.82386 23.8836 9.28953 23.6136 9.89642C23.3437 10.5035 23.6712 11.0744 23.6712 11.0744C23.6712 11.0744 23.6964 10.5357 23.9699 10.2736C23.9699 10.2736 24.0527 10.5154 24.3658 10.5716C23.9376 10.1012 24.4601 9.39469 24.6694 9.09087C24.8339 8.85179 24.7886 8.68372 24.7397 8.61597L24.7396 8.61599ZM20.5916 9.9302C20.5916 9.9302 20.6373 9.82086 20.6959 9.66289H18.6342C18.6926 9.82086 18.7384 9.9302 18.7384 9.9302H20.5916V9.9302ZM19.8399 7.37199C19.8399 7.27362 19.7599 7.19373 19.6612 7.19373C19.5627 7.19373 19.4827 7.2736 19.4827 7.37199C19.4827 7.47045 19.5627 7.5502 19.6612 7.5502C19.7599 7.5502 19.8399 7.47047 19.8399 7.37199V7.37199ZM20.7728 9.4612C20.8521 9.21957 20.9415 8.85209 20.9415 8.67477C20.9415 8.35059 20.7567 7.99171 20.1069 7.88143C20.1069 8.28024 19.9112 9.23273 19.6746 9.23273H19.6481C19.4114 9.23273 19.2156 8.27315 19.2156 7.88147C18.568 7.99191 18.3887 8.35068 18.3887 8.67474C18.3887 8.85209 18.4779 9.21955 18.5571 9.46118H20.7728L20.7728 9.4612ZM19.6612 8.96399C19.7846 8.96399 19.8846 8.33744 19.8846 8.02549C19.8846 7.85506 19.7846 7.74329 19.6612 7.74329C19.5379 7.74329 19.438 7.85506 19.438 8.02549C19.438 8.33744 19.5379 8.96399 19.6612 8.96399V8.96399ZM19.5423 6.9561H19.7804L19.7507 6.65902L20.0484 6.68876V6.45109L19.7507 6.48083L19.7804 6.18371H19.5423L19.5721 6.48083L19.2743 6.45109V6.68876L19.5721 6.65902L19.5423 6.95612L19.5423 6.9561ZM7.41752 14.0972C6.93617 14.1085 6.08854 14.2019 5.65803 14.3349C5.95065 14.6771 6.71477 15.1685 7.17265 15.3771C6.81659 15.5085 6.17791 15.842 5.91158 16.0827C6.25473 16.2892 7.00842 16.5252 7.36465 16.6024C7.15726 16.7663 6.7302 17.2401 6.57354 17.4955C6.86852 17.5851 7.47503 17.6631 7.86016 17.6851C7.73668 17.9357 7.59605 18.3781 7.5588 18.6664C7.74971 18.6852 8.38749 18.6531 8.70327 18.5841C8.67618 18.8353 8.68649 19.2923 8.7292 19.4893C9.04077 19.4457 9.48563 19.3237 9.69262 19.2457C9.75256 19.4697 9.9668 19.9519 10.0421 20.0665C10.2917 20.0197 10.5897 19.9205 10.8087 19.8087C10.8779 19.9882 11.0352 20.2567 11.0787 20.3245C11.8083 19.6063 12.8502 20.1887 12.8502 20.953C12.7753 21.4566 12.0452 21.4284 11.6608 21.6651C11.1554 21.9763 11.2429 22.6978 10.7227 22.8086C11.2142 23.1113 11.3572 22.5432 11.8678 22.5271C11.7996 22.8335 11.8061 23.3774 11.8573 23.6053C12.0674 23.4473 12.3621 23.3268 12.5549 23.3145C12.5072 23.4933 12.4701 23.9115 12.539 24.172C12.6744 24.072 13.1802 23.6438 14.3812 23.9191C14.5268 23.9524 13.5666 23.9157 13.6864 24.2173C13.7808 24.4551 13.8075 24.6204 13.6946 24.9579C13.7455 24.9757 13.8046 24.9842 13.8682 24.9842C14.1375 24.9842 14.4867 24.832 14.6254 24.5931C14.7325 24.6707 14.7325 25.2233 14.3734 25.3606C14.757 25.3878 15.0491 25.0844 15.1058 24.898C15.1058 24.898 15.2933 25.332 15.5156 25.4745C15.6553 25.4269 15.904 25.2015 16.0002 24.9674C16.0962 25.2015 16.345 25.4269 16.4846 25.4745C16.707 25.332 16.8945 24.898 16.8945 24.898C16.9512 25.0844 17.2434 25.3878 17.6269 25.3606C17.2678 25.2233 17.2678 24.6707 17.375 24.5931C17.5137 24.832 17.8628 24.9842 18.1322 24.9842C18.1957 24.9842 18.2549 24.9757 18.3058 24.9579C18.193 24.6204 18.2196 24.4551 18.314 24.2173C18.4339 23.9157 17.4736 23.9525 17.6192 23.9191C18.8199 23.6438 19.326 24.072 19.4614 24.172C19.5304 23.9115 19.4932 23.4933 19.4455 23.3145C19.6383 23.3268 19.933 23.4473 20.1431 23.6053C20.1941 23.3774 20.2007 22.8334 20.1325 22.527C20.643 22.5432 20.786 23.1113 21.2776 22.8086C20.7574 22.6978 20.8448 21.9763 20.3394 21.6651C19.9551 21.4284 19.2249 21.4565 19.1501 20.953C19.1501 20.1887 20.192 19.6063 20.9217 20.3245C20.9651 20.2567 21.1223 19.9881 21.1916 19.8087C21.4106 19.9205 21.7086 20.0197 21.9582 20.0665C22.0335 19.9518 22.2478 19.4696 22.3076 19.2457C22.5147 19.3236 22.9595 19.4457 23.2711 19.4893C23.3138 19.2923 23.3241 18.8353 23.297 18.5841C23.6128 18.6531 24.2505 18.6852 24.4414 18.6663C24.4042 18.3781 24.2637 17.9357 24.14 17.6851C24.5252 17.663 25.1317 17.5851 25.4268 17.4955C25.27 17.24 24.843 16.7662 24.6357 16.6023C24.9918 16.5252 25.7455 16.2892 26.0887 16.0826C25.8224 15.8419 25.1836 15.5085 24.8276 15.3771C25.2855 15.1684 26.0496 14.6771 26.3423 14.3349C25.9117 14.2018 25.0641 14.1084 24.5827 14.0971C25.5791 13.4351 25.6098 11.9992 25.3228 11.219C25.1299 11.692 24.4903 12.4691 24.0774 12.8881C24.114 13.2868 23.9808 13.9942 23.7524 14.4259C24.0794 14.5466 24.467 14.7285 24.7416 14.9314C24.5594 15.1541 24.1674 15.4997 23.9215 15.687C24.1296 15.8984 24.4796 16.2866 24.6355 16.5111C24.4051 16.6787 23.9036 16.871 23.6465 16.9593C23.773 17.2113 23.9568 17.671 24.0043 17.9883C23.7115 18.0354 23.3085 18.0672 22.8871 18.0623C22.9076 18.3661 22.8636 18.8366 22.8091 19.1183C22.4183 19.0882 21.9573 18.9323 21.7517 18.8322C21.6429 19.2522 21.3742 19.6596 21.3624 19.6812C20.1409 18.388 19.0582 19.608 19.0582 20.7479V22.3012C19.0582 23.0359 18.8199 23.3713 18.1341 23.3713H17.2466C16.6941 23.3713 16.2311 23.599 16.0001 24.0365C15.7691 23.599 15.3061 23.3713 14.7536 23.3713H13.8661C13.1802 23.3713 12.9419 23.0359 12.9419 22.3012V20.7479C12.9419 19.608 11.8593 18.388 10.6377 19.6812C10.626 19.6596 10.3572 19.2522 10.2484 18.8322C10.0428 18.9323 9.58178 19.0882 9.19115 19.1184C9.1365 18.8366 9.09258 18.3661 9.11305 18.0623C8.69171 18.0673 8.28871 18.0355 7.99586 17.9884C8.04341 17.6711 8.22716 17.2114 8.35371 16.9594C8.09669 16.8711 7.59515 16.6788 7.36467 16.5111C7.52055 16.2867 7.87058 15.8984 8.07868 15.687C7.83274 15.4997 7.44073 15.1542 7.25854 14.9314C7.53308 14.7285 7.92079 14.5465 8.2478 14.4259C8.01937 13.9942 7.88611 13.2869 7.9228 12.888C7.50987 12.4691 6.87022 11.6919 6.6773 11.2189C6.39036 11.9992 6.42108 13.4351 7.41745 14.0971L7.41752 14.0972ZM4.66809 21.5136L4.57828 21.6067C4.57828 21.6067 4.76458 21.8432 4.915 21.7532C5.00063 21.5997 4.75836 21.4209 4.75836 21.4209L4.66807 21.5136H4.66809Z" fill="white"/>
</g>
<defs>
<clipPath id="clip0">
<rect width="26" height="28" fill="white" transform="translate(3 3)"/>
</clipPath>
</defs>
</svg>
