<svg width="32" height="32" viewBox="0 0 32 32" fill="none" xmlns="http://www.w3.org/2000/svg">
<mask id="path-1-inside-1" fill="white">
<path d="M18.2779 21.1606C18.5014 20.8875 18.7993 20.5896 19.1469 20.2544V20.242L19.4821 19.9192L19.8048 19.5716C20.0999 19.2704 20.4064 18.9805 20.7235 18.7026C21.0015 18.4514 21.3263 18.2574 21.6794 18.1316C22.2504 17.9578 22.8463 17.9578 23.4173 18.1316C23.7897 18.2557 24.0877 18.4668 24.3732 18.7026C24.6463 18.9385 24.969 19.2612 25.3166 19.6088L25.3167 19.6089L25.6146 19.9192L25.925 20.2171L25.925 20.2172C26.2726 20.5648 26.5953 20.8875 26.8312 21.1606C27.0671 21.4461 27.2781 21.7441 27.4022 22.1165C27.576 22.6875 27.576 23.2834 27.4022 23.8545C27.2781 24.2269 27.0671 24.5248 26.8188 24.8103C26.5953 25.0834 26.2974 25.3814 25.9498 25.729L25.9498 25.729L25.6146 26.0518L25.2918 26.3993C24.9443 26.7345 24.6463 27.0325 24.3732 27.2683C24.0877 27.5042 23.7897 27.7152 23.4173 27.8394C22.8463 28.0132 22.2504 28.0132 21.6794 27.8394C21.3069 27.7152 21.009 27.5042 20.7235 27.2683C20.4504 27.0325 20.1276 26.7097 19.7801 26.3622L19.78 26.3621L19.4821 26.0518L19.1717 25.7538C18.8241 25.4062 18.5014 25.0835 18.2655 24.8103C18.0296 24.5248 17.8186 24.2269 17.6944 23.8545C17.5096 23.2899 17.5096 22.6811 17.6944 22.1165C17.8239 21.7625 18.0222 21.4376 18.2779 21.1606Z"/>
<path d="M18.2282 13.5508C18.2034 13.2032 18.2034 12.7811 18.2034 12.2846V11.8128V11.3411C18.2034 10.8569 18.2034 10.4225 18.2282 10.0749C18.2514 9.69956 18.3484 9.33253 18.5138 8.99483C18.7812 8.4714 19.2069 8.04568 19.7303 7.77826C20.0779 7.59205 20.4379 7.52998 20.8104 7.49273C21.158 7.46791 21.6173 7.46791 22.1138 7.46791H22.9828C23.4794 7.46791 23.9387 7.46791 24.2863 7.49273C24.6463 7.51756 25.0063 7.59205 25.3787 7.76584C25.805 7.98969 26.1662 8.31993 26.4272 8.72449C26.6882 9.12906 26.8402 9.59423 26.8684 10.0749C26.8933 10.4225 26.8933 10.8445 26.8933 11.3411V12.2846C26.8933 12.7687 26.8933 13.2032 26.8684 13.5508C26.8312 13.9108 26.7691 14.2832 26.5829 14.6308C26.3222 15.1522 25.8877 15.5867 25.3663 15.8474C25.0187 16.0336 24.6587 16.0957 24.2863 16.1329C23.9387 16.1577 23.4794 16.1577 22.9828 16.1577H22.1138C21.6173 16.1577 21.158 16.1577 20.8104 16.1329C20.4504 16.0957 20.0779 16.0336 19.7303 15.8474C19.209 15.5867 18.7745 15.1522 18.5138 14.6308C18.3276 14.2832 18.2655 13.9232 18.2282 13.5508Z"/>
<path d="M7.03076 22.5137V23.4572C7.03076 23.9414 7.03076 24.3759 7.05559 24.7235C7.08042 25.0835 7.1549 25.4435 7.3287 25.8159C7.55255 26.2421 7.88278 26.6033 8.28735 26.8643C8.69192 27.1253 9.15709 27.2773 9.63771 27.3056C9.98531 27.3304 10.4446 27.3304 10.9412 27.3304H11.8102C12.3067 27.3304 12.7661 27.3304 13.1137 27.3056C13.4889 27.2824 13.856 27.1854 14.1937 27.0201C14.7171 26.7526 15.1428 26.3269 15.4103 25.8035C15.5756 25.4658 15.6726 25.0987 15.6958 24.7235C15.7206 24.3759 15.7206 23.9538 15.7206 23.4572V22.5137C15.7206 22.0296 15.7206 21.5951 15.6958 21.2475C15.6709 20.8875 15.5965 20.5275 15.4227 20.1551C15.1988 19.7288 14.8686 19.3677 14.464 19.1067C14.0594 18.8456 13.5943 18.6936 13.1137 18.6654C12.7661 18.6406 12.3067 18.6406 11.8102 18.6406H10.9412C10.4446 18.6406 9.98531 18.6406 9.63771 18.6654C9.27771 18.6902 8.9177 18.7647 8.54528 18.9385C8.11902 19.1623 7.75787 19.4926 7.49686 19.8971C7.23584 20.3017 7.08384 20.7669 7.05559 21.2475C7.03076 21.5951 7.03076 22.0172 7.03076 22.5137Z"/>
<path d="M7.05559 13.5508C7.03076 13.2032 7.03076 12.7811 7.03076 12.2846V11.8128V11.3411C7.03076 10.8569 7.03076 10.4225 7.05559 10.0749C7.07321 9.69619 7.16605 9.32482 7.3287 8.98242C7.55255 8.55616 7.88278 8.19501 8.28735 7.934C8.69192 7.67299 9.15709 7.52098 9.63771 7.49273C9.98531 7.46791 10.4446 7.46791 10.9412 7.46791H11.8102C12.3067 7.46791 12.7661 7.46791 13.1137 7.49273C13.4737 7.51756 13.8337 7.59205 14.2061 7.76584C14.6323 7.98969 14.9935 8.31993 15.2545 8.72449C15.5155 9.12906 15.6675 9.59423 15.6958 10.0749C15.7206 10.4225 15.7206 10.8445 15.7206 11.3411V12.2846C15.7206 12.7687 15.7206 13.2032 15.6958 13.5508C15.6585 13.9108 15.5965 14.2832 15.4103 14.6308C15.1496 15.1522 14.7151 15.5867 14.1937 15.8474C13.8461 16.0336 13.4861 16.0957 13.1137 16.1329C12.7661 16.1577 12.3067 16.1577 11.8102 16.1577H10.9412C10.4446 16.1577 9.98531 16.1577 9.63771 16.1329C9.27771 16.0957 8.90528 16.0336 8.55769 15.8474C8.0363 15.5867 7.60181 15.1522 7.34111 14.6308C7.1549 14.2832 7.09283 13.9232 7.05559 13.5508Z"/>
</mask>
<path d="M18.2779 21.1606C18.5014 20.8875 18.7993 20.5896 19.1469 20.2544V20.242L19.4821 19.9192L19.8048 19.5716C20.0999 19.2704 20.4064 18.9805 20.7235 18.7026C21.0015 18.4514 21.3263 18.2574 21.6794 18.1316C22.2504 17.9578 22.8463 17.9578 23.4173 18.1316C23.7897 18.2557 24.0877 18.4668 24.3732 18.7026C24.6463 18.9385 24.969 19.2612 25.3166 19.6088L25.3167 19.6089L25.6146 19.9192L25.925 20.2171L25.925 20.2172C26.2726 20.5648 26.5953 20.8875 26.8312 21.1606C27.0671 21.4461 27.2781 21.7441 27.4022 22.1165C27.576 22.6875 27.576 23.2834 27.4022 23.8545C27.2781 24.2269 27.0671 24.5248 26.8188 24.8103C26.5953 25.0834 26.2974 25.3814 25.9498 25.729L25.9498 25.729L25.6146 26.0518L25.2918 26.3993C24.9443 26.7345 24.6463 27.0325 24.3732 27.2683C24.0877 27.5042 23.7897 27.7152 23.4173 27.8394C22.8463 28.0132 22.2504 28.0132 21.6794 27.8394C21.3069 27.7152 21.009 27.5042 20.7235 27.2683C20.4504 27.0325 20.1276 26.7097 19.7801 26.3622L19.78 26.3621L19.4821 26.0518L19.1717 25.7538C18.8241 25.4062 18.5014 25.0835 18.2655 24.8103C18.0296 24.5248 17.8186 24.2269 17.6944 23.8545C17.5096 23.2899 17.5096 22.6811 17.6944 22.1165C17.8239 21.7625 18.0222 21.4376 18.2779 21.1606Z" stroke="white" stroke-width="3.4" mask="url(#path-1-inside-1)"/>
<path d="M18.2282 13.5508C18.2034 13.2032 18.2034 12.7811 18.2034 12.2846V11.8128V11.3411C18.2034 10.8569 18.2034 10.4225 18.2282 10.0749C18.2514 9.69956 18.3484 9.33253 18.5138 8.99483C18.7812 8.4714 19.2069 8.04568 19.7303 7.77826C20.0779 7.59205 20.4379 7.52998 20.8104 7.49273C21.158 7.46791 21.6173 7.46791 22.1138 7.46791H22.9828C23.4794 7.46791 23.9387 7.46791 24.2863 7.49273C24.6463 7.51756 25.0063 7.59205 25.3787 7.76584C25.805 7.98969 26.1662 8.31993 26.4272 8.72449C26.6882 9.12906 26.8402 9.59423 26.8684 10.0749C26.8933 10.4225 26.8933 10.8445 26.8933 11.3411V12.2846C26.8933 12.7687 26.8933 13.2032 26.8684 13.5508C26.8312 13.9108 26.7691 14.2832 26.5829 14.6308C26.3222 15.1522 25.8877 15.5867 25.3663 15.8474C25.0187 16.0336 24.6587 16.0957 24.2863 16.1329C23.9387 16.1577 23.4794 16.1577 22.9828 16.1577H22.1138C21.6173 16.1577 21.158 16.1577 20.8104 16.1329C20.4504 16.0957 20.0779 16.0336 19.7303 15.8474C19.209 15.5867 18.7745 15.1522 18.5138 14.6308C18.3276 14.2832 18.2655 13.9232 18.2282 13.5508Z" stroke="white" stroke-width="3.4" mask="url(#path-1-inside-1)"/>
<path d="M7.03076 22.5137V23.4572C7.03076 23.9414 7.03076 24.3759 7.05559 24.7235C7.08042 25.0835 7.1549 25.4435 7.3287 25.8159C7.55255 26.2421 7.88278 26.6033 8.28735 26.8643C8.69192 27.1253 9.15709 27.2773 9.63771 27.3056C9.98531 27.3304 10.4446 27.3304 10.9412 27.3304H11.8102C12.3067 27.3304 12.7661 27.3304 13.1137 27.3056C13.4889 27.2824 13.856 27.1854 14.1937 27.0201C14.7171 26.7526 15.1428 26.3269 15.4103 25.8035C15.5756 25.4658 15.6726 25.0987 15.6958 24.7235C15.7206 24.3759 15.7206 23.9538 15.7206 23.4572V22.5137C15.7206 22.0296 15.7206 21.5951 15.6958 21.2475C15.6709 20.8875 15.5965 20.5275 15.4227 20.1551C15.1988 19.7288 14.8686 19.3677 14.464 19.1067C14.0594 18.8456 13.5943 18.6936 13.1137 18.6654C12.7661 18.6406 12.3067 18.6406 11.8102 18.6406H10.9412C10.4446 18.6406 9.98531 18.6406 9.63771 18.6654C9.27771 18.6902 8.9177 18.7647 8.54528 18.9385C8.11902 19.1623 7.75787 19.4926 7.49686 19.8971C7.23584 20.3017 7.08384 20.7669 7.05559 21.2475C7.03076 21.5951 7.03076 22.0172 7.03076 22.5137Z" stroke="white" stroke-width="3.4" mask="url(#path-1-inside-1)"/>
<path d="M7.05559 13.5508C7.03076 13.2032 7.03076 12.7811 7.03076 12.2846V11.8128V11.3411C7.03076 10.8569 7.03076 10.4225 7.05559 10.0749C7.07321 9.69619 7.16605 9.32482 7.3287 8.98242C7.55255 8.55616 7.88278 8.19501 8.28735 7.934C8.69192 7.67299 9.15709 7.52098 9.63771 7.49273C9.98531 7.46791 10.4446 7.46791 10.9412 7.46791H11.8102C12.3067 7.46791 12.7661 7.46791 13.1137 7.49273C13.4737 7.51756 13.8337 7.59205 14.2061 7.76584C14.6323 7.98969 14.9935 8.31993 15.2545 8.72449C15.5155 9.12906 15.6675 9.59423 15.6958 10.0749C15.7206 10.4225 15.7206 10.8445 15.7206 11.3411V12.2846C15.7206 12.7687 15.7206 13.2032 15.6958 13.5508C15.6585 13.9108 15.5965 14.2832 15.4103 14.6308C15.1496 15.1522 14.7151 15.5867 14.1937 15.8474C13.8461 16.0336 13.4861 16.0957 13.1137 16.1329C12.7661 16.1577 12.3067 16.1577 11.8102 16.1577H10.9412C10.4446 16.1577 9.98531 16.1577 9.63771 16.1329C9.27771 16.0957 8.90528 16.0336 8.55769 15.8474C8.0363 15.5867 7.60181 15.1522 7.34111 14.6308C7.1549 14.2832 7.09283 13.9232 7.05559 13.5508Z" stroke="white" stroke-width="3.4" mask="url(#path-1-inside-1)"/>
</svg>
