<svg width="32" height="32" viewBox="0 0 32 32" fill="none" xmlns="http://www.w3.org/2000/svg">
<path d="M26.3081 9.60254C24.433 8.92068 22.8988 10.1139 21.6203 11.3924C21.4072 11.6055 21.0237 11.989 20.5549 12.5004C18.8929 12.5004 16.208 12.5004 14.8443 12.5004V6.0654V6.02279C14.8443 5.63924 14.5886 5.29831 14.2051 5.21308C13.6085 5.04262 12.9692 5 12.4152 5C8.32406 5 5 8.32406 5 12.4152C5 14.7591 6.15064 16.9751 7.98313 18.3388C9.77301 19.7878 11.8186 19.8304 13.2675 19.8304C12.9266 20.1713 12.6283 20.4697 12.33 20.8106C11.7333 20.427 11.0089 20.214 10.2844 20.214C8.15359 20.214 6.40633 21.9612 6.40633 24.092C6.40633 26.2228 8.15359 27.9701 10.2844 27.9701C12.4152 27.9701 14.1625 26.2228 14.1625 24.092C14.1625 23.3249 13.9494 22.6005 13.5658 22.0038C14.0346 21.5351 14.546 21.0237 15.0574 20.5123C15.1 20.5549 15.1 20.5549 15.1426 20.5975L16.5064 21.9612C16.1228 22.5578 15.8671 23.2823 15.8671 24.092C15.8671 26.2228 17.6144 27.9701 19.7452 27.9701C21.876 27.9701 23.6232 26.2228 23.6232 24.092C23.6232 21.9612 21.876 20.214 19.7452 20.214C19.0207 20.214 18.2962 20.427 17.7422 20.768L16.8047 19.8304H18.6798C21.2794 19.8304 23.3675 17.6996 23.3675 15.1C23.3675 14.4182 23.3675 13.9494 23.2823 13.5658C23.1971 13.1823 23.0266 12.9266 22.7709 12.7135C22.8135 12.6709 22.8562 12.6283 22.8562 12.6283C24.433 11.0515 25.2 11.0089 25.7541 11.222C26.095 11.3498 26.2654 11.7333 26.2654 11.989C26.2654 12.2021 26.1376 12.2447 26.095 12.2874C25.9671 12.33 25.8819 12.3726 25.8393 12.3726C25.7114 11.989 25.2853 11.7333 24.8591 11.8186C24.3903 11.9038 24.1346 12.3726 24.2199 12.8414C24.2625 12.9692 24.3903 13.5658 25.0296 13.8642C25.3705 14.0346 25.9245 14.2051 26.7342 13.8642C27.5013 13.5658 28.0127 12.8414 28.0127 11.989C27.9701 10.9663 27.2882 9.98609 26.3081 9.60254ZM10.2418 26.2228C9.04853 26.2228 8.06836 25.2427 8.06836 24.0494C8.06836 22.8562 9.04853 21.876 10.2418 21.876C10.5401 21.876 10.7958 21.9186 11.0515 22.0464C10.4122 22.6857 9.98609 23.1119 9.77301 23.3249C9.55993 23.4954 9.43208 23.7085 9.43208 24.0068C9.43208 24.4756 9.81562 24.8591 10.2844 24.8591C10.4975 24.8591 10.6679 24.7739 10.8384 24.646C10.8384 24.646 11.3924 24.092 12.2447 23.2397C12.33 23.4954 12.4152 23.7511 12.4152 24.0494C12.4152 25.2427 11.4777 26.2228 10.2418 26.2228ZM17.7422 23.1545L19.1912 24.6034C19.3616 24.7739 19.5747 24.8591 19.7878 24.8591C20.0009 24.8591 20.214 24.7739 20.3844 24.6034C20.7253 24.2625 20.7253 23.7511 20.3844 23.4102L18.9781 22.0038C19.1912 21.9186 19.4469 21.876 19.7452 21.876C20.9384 21.876 21.9186 22.8562 21.9186 24.0494C21.9186 25.2427 20.9384 26.2228 19.7452 26.2228C18.5519 26.2228 17.5718 25.2427 17.5718 24.0494C17.5291 23.7085 17.6144 23.4528 17.7422 23.1545ZM14.9722 18.0832H13.438C12.1169 18.0832 10.4549 18.0832 9.00592 16.9325C7.55697 15.8671 6.66203 14.1625 6.66203 12.33C6.66203 9.17638 9.219 6.61941 12.3726 6.61941C12.6283 6.61941 12.884 6.61941 13.1397 6.66203V13.3101C13.1397 13.5232 13.2249 13.7363 13.3954 13.9068C13.5658 14.0772 13.7789 14.1625 13.992 14.1625C13.992 14.1625 16.5916 14.1625 18.8502 14.1625C17.657 15.3983 16.2933 16.7621 14.9722 18.0832ZM18.6372 18.0832H17.4013C18.8076 16.6342 20.214 15.2705 21.2794 14.2051C21.4072 14.2051 21.5351 14.2051 21.6629 14.2051C21.6629 14.4182 21.6629 14.7591 21.6629 15.1C21.6203 16.7621 20.2992 18.0832 18.6372 18.0832Z" fill="white"/>
</svg>
