<svg width="32" height="32" viewBox="0 0 32 32" fill="none" xmlns="http://www.w3.org/2000/svg">
<path d="M23.8298 11.3617H20.1702V7.70213C20.1702 6.76596 19.4043 6 18.4681 6H13.0638C12.1277 6 11.3617 6.76596 11.3617 7.70213V11.3617H7.70213C6.76596 11.3617 6 12.1277 6 13.0638V18.4255C6 19.3617 6.76596 20.1277 7.70213 20.1277H11.3617V23.7872C11.3617 24.7234 12.1277 25.4894 13.0638 25.4894H18.4255C19.3617 25.4894 20.1277 24.7234 20.1277 23.7872V20.1277H23.7872C24.7234 20.1277 25.4894 19.3617 25.4894 18.4255V13.0638C25.5319 12.1277 24.766 11.3617 23.8298 11.3617ZM23.8298 18.4255H18.4255V23.7872H13.0638V18.4255H7.70213V13.0638H13.0638V7.70213H18.4255V13.0638H23.7872V18.4255H23.8298Z" fill="white"/>
</svg>
