<svg width="32" height="32" viewBox="0 0 32 32" fill="none" xmlns="http://www.w3.org/2000/svg">
<path fill-rule="evenodd" clip-rule="evenodd" d="M22.768 4.83249V6.57975C23.4924 6.75022 24.0464 7.43208 24.0464 8.2844V27.4617C24.0464 28.3992 23.2794 29.1663 22.3418 29.1663H8.70464C7.76709 29.1663 7 28.3992 7 27.4617V8.2844C7 7.77301 7.21308 7.34685 7.51139 7.04853C7.63924 6.83545 7.80971 6.66499 8.0654 6.57975L20.4667 3.08523C21.0633 2.91477 21.6599 3 22.0861 3.34093C22.5123 3.68186 22.768 4.23587 22.768 4.83249ZM21.0633 4.70465H20.9355L14.4578 6.53714H21.1059V4.83249C21.1059 4.74726 21.0633 4.70465 21.0633 4.70465ZM8.70464 27.419H22.3418V8.24178H8.70464V27.419ZM19.1457 14.7622C19.1457 15.8702 18.6769 16.8504 17.9951 17.5323C19.3162 18.0863 20.3816 19.0238 20.9782 20.1745C21.2339 20.7285 21.2339 21.3677 20.893 21.9217C20.1259 23.2002 17.1428 23.9247 15.3955 23.9247H15.3529C14.0318 23.9247 12.7959 23.6264 12.1993 23.4133C10.4859 22.87 10.1248 22.3267 9.95074 22.0648C9.9473 22.0596 9.94393 22.0545 9.94063 22.0496C9.64231 21.5382 9.5997 20.8989 9.8554 20.3449C10.452 19.0664 11.56 18.0863 12.8811 17.5323C12.1567 16.8504 11.7305 15.8702 11.7305 14.7622C11.7305 12.6314 13.3925 10.9268 15.4381 10.9268C17.4837 10.9268 19.1457 12.6314 19.1457 14.7622ZM17.4411 14.8048C17.4411 13.6116 16.5461 12.674 15.4381 12.674C14.3301 12.674 13.4351 13.6116 13.4351 14.8048C13.4351 15.9981 14.3301 16.9356 15.4381 16.9356C16.5461 16.9356 17.4411 15.9981 17.4411 14.8048ZM11.3896 21.112C11.3043 21.3677 13.3499 22.3053 15.4381 22.3053C17.5689 22.2626 19.6145 21.2825 19.5293 21.0268C18.8474 19.6631 17.2706 18.7255 15.4807 18.7255C13.6482 18.7255 12.0714 19.7057 11.3896 21.112Z" fill="white"/>
</svg>
