<svg width="32" height="32" viewBox="0 0 32 32" fill="none" xmlns="http://www.w3.org/2000/svg">
<path fill-rule="evenodd" clip-rule="evenodd" d="M18.929 5.5449C18.7698 5.38446 18.5533 5.29402 18.3273 5.29358C18.1013 5.29314 17.8844 5.38272 17.7246 5.54254L16.3078 6.95931C16.1748 7.09232 16.0896 7.26569 16.0657 7.45226L15.9175 8.60861L11.2083 13.3177L10.0087 13.4977C9.82493 13.5253 9.65522 13.6123 9.52561 13.7455L8.14712 15.1623C7.82292 15.4955 7.82657 16.0274 8.1553 16.3561L13.0183 21.2191C13.1777 21.3785 13.3939 21.468 13.6193 21.468C13.8448 21.468 14.061 21.3785 14.2204 21.2191L15.6371 19.8023C15.7701 19.6693 15.8553 19.4959 15.8792 19.3094L16.0106 18.2842L16.7387 17.5561L23.4733 25.1631L23.4733 25.1631L23.4779 25.1682C24.4885 26.2911 26.238 26.3538 27.3146 25.2772L27.6139 24.9779C28.7406 23.8983 28.6742 22.134 27.5004 21.1241L19.8649 14.4299L20.8711 13.4237L21.9362 13.2639C22.1161 13.2369 22.2825 13.153 22.4111 13.0244L23.7896 11.6459C24.1206 11.3149 24.1217 10.7785 23.792 10.4462L18.929 5.5449ZM14.337 17.9703L11.378 15.0113L10.5442 15.1364L9.95025 15.7469L13.6193 19.416L14.2299 18.8054L14.337 17.9703ZM20.5898 11.7469L21.4071 11.6243L21.9888 11.0425L18.3232 7.34802L17.715 7.95623L17.611 8.768L20.5898 11.7469ZM17.943 16.3518L18.6602 15.6346L26.3829 22.4052L26.3829 22.4053L26.3901 22.4114C26.8178 22.778 26.8292 23.3786 26.4344 23.7536L26.4188 23.7688L26.1125 24.0752C25.7346 24.453 25.1116 24.4398 24.7435 24.0332L17.943 16.3518ZM12.8505 14.0797L15.3307 16.5599L19.1647 12.7259L16.6845 10.2457L12.8505 14.0797ZM4.42822 25.4352C3.95877 25.4352 3.57822 25.8157 3.57822 26.2852C3.57822 26.7546 3.95877 27.1352 4.42822 27.1352H17.294C17.7635 27.1352 18.144 26.7546 18.144 26.2852C18.144 25.8157 17.7635 25.4352 17.294 25.4352H16.3048V23.2207C16.3048 22.7513 15.9242 22.3707 15.4548 22.3707H6.30322C5.83377 22.3707 5.45322 22.7513 5.45322 23.2207V25.4352H4.42822ZM14.6048 24.0707V25.4352H7.15322V24.0707H14.6048Z" fill="white"/>
</svg>
