<svg width="32" height="32" viewBox="0 0 32 32" fill="none" xmlns="http://www.w3.org/2000/svg">
<path fill-rule="evenodd" clip-rule="evenodd" d="M14 7.39636C13.5306 7.39636 13.15 7.77692 13.15 8.24636C13.15 8.7158 13.5306 9.09636 14 9.09636H18C18.4694 9.09636 18.85 8.7158 18.85 8.24636C18.85 7.77692 18.4694 7.39636 18 7.39636H14ZM19 11.7H13C11.1775 11.7 9.7 13.1774 9.7 15V16.0956C10.0608 15.8646 10.3 15.4602 10.3 15C10.3 13.5088 11.5088 12.3 13 12.3H19C20.4912 12.3 21.7 13.5088 21.7 15C21.7 15.4602 21.9392 15.8646 22.3 16.0956V15C22.3 13.1774 20.8225 11.7 19 11.7ZM20 15C20 16.3062 20.8348 17.4174 22 17.8293V17.9019L22.7441 18.6447C23.7402 19.6389 24.3 20.9885 24.3 22.3959V23.0001C24.3 23.7181 23.718 24.3001 23 24.3001H9C8.28203 24.3001 7.7 23.7181 7.7 23.0001V22.3959C7.7 20.9885 8.25976 19.6389 9.25586 18.6447L10 17.9019V17.8293C11.1652 17.4174 12 16.3062 12 15C12 14.4477 12.4477 14 13 14H19C19.5523 14 20 14.4477 20 15ZM8 16.3V17.4969C6.71875 18.8045 6 20.5631 6 22.3959V23.0001C6 24.657 7.34315 26.0001 9 26.0001H23C24.6569 26.0001 26 24.657 26 23.0001V22.3959C26 20.5631 25.2812 18.8045 24 17.4969V16.3V15C24 12.2386 21.7614 9.99998 19 9.99998H13C10.2386 9.99998 8 12.2386 8 15V16.3Z" fill="white"/>
</svg>
