<svg width="32" height="32" viewBox="0 0 32 32" fill="none" xmlns="http://www.w3.org/2000/svg">
<path fill-rule="evenodd" clip-rule="evenodd" d="M15.5166 6.86441C15.827 6.60706 16.2754 6.60311 16.5902 6.85496L27.4132 15.5133C27.7798 15.8066 27.8392 16.3415 27.546 16.7081C27.2527 17.0746 26.7178 17.1341 26.3512 16.8408L24.4217 15.2972V23.4348C24.4217 25.3107 22.901 26.8314 21.0251 26.8314H10.5841C8.7082 26.8314 7.18749 25.3107 7.18749 23.4348V15.98L6.16083 16.8314C5.79947 17.131 5.26361 17.081 4.96395 16.7197C4.66429 16.3583 4.7143 15.8225 5.07566 15.5228L15.5166 6.86441ZM8.88749 14.5702V23.4348C8.88749 24.3718 9.64708 25.1314 10.5841 25.1314H21.0251C21.9621 25.1314 22.7217 24.3718 22.7217 23.4348V14.0125H22.8158L16.0689 8.61495L8.88749 14.5702ZM14.746 21.7918C15.08 22.0744 15.5741 22.0573 15.8878 21.7521L20.5989 17.1682C20.9354 16.8409 20.9428 16.3027 20.6154 15.9663C20.288 15.6298 19.7499 15.6224 19.4134 15.9498L15.2552 19.9957L12.5335 17.6928C12.1751 17.3895 11.6388 17.4342 11.3356 17.7926C11.0323 18.151 11.077 18.6873 11.4354 18.9905L14.746 21.7918Z" fill="white"/>
</svg>
