<svg width="32" height="32" viewBox="0 0 32 32" fill="none" xmlns="http://www.w3.org/2000/svg">
<path fill-rule="evenodd" clip-rule="evenodd" d="M5.40178 8.15002C5.02053 8.15002 4.71357 8.33454 4.5202 8.5307C4.32609 8.72763 4.14999 9.03358 4.14999 9.40763V11.8533V12.587V23.5799V23.5924C4.14999 23.6573 4.1553 23.7202 4.16508 23.7808C4.24283 24.2897 4.61152 24.6621 5.04978 24.7959C5.15807 24.8299 5.27587 24.85 5.40178 24.85H5.40892H22.5982H22.9108C23.2977 24.85 23.6075 24.6604 23.801 24.4616C23.9579 24.3004 24.101 24.0695 24.1509 23.7909L27.7887 14.7371C27.8292 14.6363 27.85 14.5288 27.85 14.4202C27.85 14.0468 27.6763 13.7388 27.4813 13.5385C27.2878 13.3396 26.978 13.15 26.5911 13.15H23.85V11.8533C23.85 11.4792 23.6739 11.1733 23.4798 10.9764C23.2864 10.7802 22.9795 10.5957 22.5982 10.5957H14.2071V9.40763C14.2071 9.03358 14.031 8.72763 13.8369 8.5307C13.6436 8.33454 13.3366 8.15002 12.9554 8.15002H5.40178ZM22.15 13.15V12.2957H13.3571C12.8877 12.2957 12.5071 11.9151 12.5071 11.4457V9.85002H5.84999V11.8533V12.587V19.1845L7.84904 14.2091C7.89897 13.9305 8.04208 13.6997 8.19894 13.5385C8.39247 13.3396 8.70228 13.15 9.08921 13.15H22.15ZM6.08874 23.15H22.274C22.3759 22.9832 22.5337 22.8542 22.7214 22.7891L25.9112 14.85H9.42363L6.08874 23.15Z" fill="white"/>
</svg>
