<svg viewBox="0 0 24 24" fill="none" xmlns="http://www.w3.org/2000/svg">
  <path fill-rule="evenodd" clip-rule="evenodd" d="M10.3 2C5.7 2 2 5.6 2 10.1C2 14.6 5.7 18.2 10.3 18.2C12 18.2 13.7 17.7 15.1 16.7L15.2 16.6L20.3 21.7C20.7 22.1 21.3 22.1 21.7 21.7C21.9 21.5 22 21.3 22 21C22 20.7 21.9 20.5 21.7 20.3L16.6 15.2L16.7 15.1C18 13.7 18.7 11.8 18.7 9.9C18.7 5.6 14.9 2 10.3 2ZM10.3 16.2C6.8 16.2 4 13.5 4 10.1C4 6.7 6.9 3.9 10.4 3.9C13.9 3.9 16.8 6.7 16.8 10.1C16.8 13.5 13.9 16.2 10.3 16.2Z" fill="#0D4CD3"/>
</svg>
